<?xml version="1.0" standalone="no"?>
<!DOCTYPE svg PUBLIC "-//W3C//DTD SVG 20010904//EN"
 "http://www.w3.org/TR/2001/REC-SVG-20010904/DTD/svg10.dtd">
<svg version="1.0" xmlns="http://www.w3.org/2000/svg"
 width="600.000000pt" height="600.000000pt" viewBox="0 0 600.000000 600.000000"
 preserveAspectRatio="xMidYMid meet">
<metadata>
Created by potrace 1.11, written by Peter Selinger 2001-2013
</metadata>
<g transform="translate(0.000000,600.000000) scale(0.100000,-0.100000)"
fill="#000000" stroke="none">
<path d="M380 5984 c-14 -7 -33 -14 -43 -14 -39 0 -135 -57 -192 -115 -58 -58
-115 -153 -115 -192 0 -10 -7 -31 -15 -47 -13 -25 -15 -340 -15 -2616 0 -2276
2 -2591 15 -2616 8 -16 15 -37 15 -47 0 -39 57 -134 115 -192 58 -58 153 -115
192 -115 10 0 31 -7 47 -15 25 -13 342 -15 2637 -15 1498 0 2609 4 2609 9 0 5
21 14 47 20 83 21 129 49 188 113 55 59 115 164 115 200 0 9 5 20 10 23 7 4
10 886 10 2614 0 2295 -2 2612 -15 2637 -8 16 -15 37 -15 47 0 39 -57 134
-115 192 -58 58 -153 115 -192 115 -10 0 -31 7 -47 15 -25 13 -339 15 -2620
14 -2189 -1 -2595 -3 -2616 -15z m1997 -2134 c149 -300 359 -723 466 -940
l195 -395 200 405 c110 223 297 603 416 845 119 242 238 483 265 535 l48 95
284 0 284 0 3 -1417 2 -1418 -225 0 -225 0 0 1019 c0 561 -4 1022 -8 1025 -4
2 -205 -390 -447 -872 l-440 -877 -150 -2 c-82 -2 -155 0 -161 5 -11 6 -850
1675 -876 1741 -6 14 -12 21 -15 15 -2 -6 -5 -470 -6 -1030 l-2 -1019 -226 -3
-226 -2 -6 52 c-4 29 -7 663 -7 1409 0 1050 3 1358 12 1367 9 9 83 12 293 10
l280 -3 272 -545z"/>
</g>
</svg>
