<svg width="254" height="190" viewBox="0 0 254 190" fill="none" xmlns="http://www.w3.org/2000/svg">
<path d="M67.651 2.66299C80.541 9.89799 98.272 19.528 105.487 23.517C112.701 27.507 115.071 28.515 115.071 29.421C115.071 30.327 113.258 30.849 108.458 33.633C103.659 36.418 99.229 39.451 95.295 39.451C91.361 39.451 73.717 25.031 68.75 21.057C63.783 17.082 61.393 16.06 60.411 12.075C59.686 8.63099 59.551 5.08899 60.011 1.59999C60.254 -0.536709 61.358 -0.860706 67.651 2.66299Z" fill="#172337"/>
<path d="M149.104 57.389C149.195 58.816 151.159 58.978 153.913 58.28C156.668 57.581 167.715 54.796 168.449 52.71C169.183 50.624 161.467 47.055 157.442 48.063C153.417 49.07 148.911 54.174 149.104 57.389Z" fill="#172337"/>
<path d="M251.183 11.402C248.175 5.91899 241.629 6.07599 225.195 17.411C208.76 28.747 198.665 32.448 193.708 34.398C188.752 36.347 186.985 37.046 179.203 33.334C171.421 29.623 163.974 24.302 152.835 24.302C145.605 24.15 119.177 34.241 111.506 37.972C105.431 40.944 98.044 44.701 95.234 46.134C94.885 46.31 94.494 46.388 94.104 46.357C93.713 46.327 93.339 46.19 93.021 45.961C87.761 42.169 64.416 25.325 58.138 20.373C51.05 14.804 43.212 11.706 40.964 11.706C38.716 11.706 37.628 14.176 39.126 20.307C40.625 26.439 51.434 80.141 52.391 83.847C53.956 89.852 54.416 90.404 51.677 93.913C48.938 97.421 39.805 108.955 30.302 122.078C20.798 135.201 19.558 136.446 19.558 139.292C19.558 142.137 20.915 142.568 23.745 142.568C26.575 142.568 31.339 141.773 27.699 146.977C24.059 152.182 3.38199 177.618 0.773993 181.578C-1.83301 185.537 9.69999 189.106 17.715 189.532C30.099 190.185 46.326 186.387 54.983 179.254C67.433 168.996 83.842 142.233 96.165 125.141C104.195 114.002 105.785 109.567 103.846 100.525C101.907 91.482 96.814 80.227 104.281 66.097C111.749 51.966 123.85 46.635 135.044 42.022C146.238 37.41 157.782 34.666 168.642 39.643C179.502 44.62 185.157 50.731 196.579 45.212C208.001 39.694 206.199 39.329 219.656 31.066C233.113 22.804 235.604 20.434 239.563 24.484C243.523 28.535 245.482 37.582 240.384 49.617C235.285 61.652 205.358 91.189 191.03 108.347C176.702 125.505 156.536 145.145 155.655 148.679C154.774 152.213 165.735 154.871 174.216 154.162C182.696 153.453 188.721 153.655 195.268 142.309C201.814 130.963 211.191 109.765 226.577 86.237C241.963 62.71 252.935 48.027 253.284 37.77C253.633 27.512 254.185 16.885 251.183 11.402ZM65.114 69.155C60.583 76.8 59.16 73.023 58.411 71.038C57.662 69.054 52.649 47.592 49.91 35.805C48.66 30.428 48.088 28.079 49.556 27.289C53.049 25.416 67.251 36.22 71.691 45.516C75.762 53.941 69.651 61.5 65.114 69.155Z" fill="#172337"/>
</svg>
