<svg width="237" height="64" viewBox="0 0 237 64" fill="none" xmlns="http://www.w3.org/2000/svg">
<g clip-path="url(#clip0_1_2)">
<path d="M116.8 46.3C117 46.3 117.2 46.4 117.4 46.6L118.8 48C117.8 49.1 116.7 50 115.5 50.9C114.3 51.7 113 52.5 111.6 53.1C110.2 53.7 108.7 54.1 107 54.5C105.4 54.8 103.5 55 101.6 55C98.2 55 95.2 54.4 92.4 53.2C89.6 52 87.2 50.4 85.3 48.2C83.3 46.1 81.7 43.5 80.6 40.5C79.5 37.4 79 34.1 79 30.3C79 26.7 79.5 23.4 80.7 20.3C81.8 17.3 83.4 14.7 85.5 12.6C87.6 10.4 90 8.7 92.9 7.6C95.8 6.4 99 5.8 102.5 5.8C104.2 5.8 105.8 5.9 107.3 6.2C110.012 6.60943 112.604 7.59855 114.9 9.1C116 9.8 117.1 10.7 118.2 11.6L117.1 13.1C116.9 13.4 116.7 13.5 116.3 13.5C116.1 13.5 115.8 13.4 115.5 13.2C115.088 12.9164 114.688 12.6162 114.3 12.3C113.8 12 113.2 11.6 112.5 11.2C111.8 10.7 111 10.3 110.1 10C109.1 9.6 108 9.4 106.8 9.1C105.5 8.9 104.1 8.8 102.5 8.8C99.6 8.8 96.9 9.3 94.4 10.3C92 11.3 89.9 12.7 88.1 14.6C86.4 16.5 85 18.7 84 21.4C83 24 82.5 27 82.5 30.3C82.5 33.7 83 36.8 84 39.5C85 42.1 86.3 44.4 88 46.2C89.7 48.1 91.8 49.5 94.1 50.5C96.5 51.5 99 52 101.8 52C103.5 52 105 51.8 106.4 51.6C107.7 51.4 109 51.1 110.1 50.6C111.2 50.1 112.3 49.6 113.2 48.9C114.2 48.3 115.2 47.5 116.1 46.6C116.2 46.5 116.4 46.5 116.5 46.4C116.6 46.3 116.7 46.3 116.8 46.3ZM129.4 54.4V5H132.6V54.4H129.4ZM158.3 52.3C160.3 52.3 162 52 163.5 51.3C165.1 50.6 166.3 49.6 167.3 48.3C168.3 47 169.1 45.4 169.6 43.6C170.1 41.8 170.3 39.7 170.3 37.5C170.3 35.2 170.1 33.2 169.6 31.4C169.162 29.6928 168.379 28.0932 167.3 26.7C166.3 25.3 165.1 24.3 163.5 23.6C162 22.9 160.3 22.6 158.3 22.6C156.2 22.6 154.5 22.9 153 23.6C151.5 24.3 150.2 25.3 149.2 26.7C148.121 28.0932 147.338 29.6928 146.9 31.4C146.4 33.2 146.2 35.2 146.2 37.5C146.2 39.7 146.4 41.8 146.9 43.6C147.4 45.4 148.2 47 149.2 48.3C150.2 49.6 151.5 50.6 153 51.3C154.5 52 156.2 52.3 158.3 52.3ZM158.3 20C160.532 19.9957 162.742 20.4377 164.8 21.3C166.649 22.0796 168.292 23.2777 169.6 24.8C170.9 26.3 171.9 28.1 172.6 30.3C173.3 32.4 173.7 34.8 173.7 37.5C173.7 40.1 173.3 42.5 172.6 44.7C171.9 46.8 170.9 48.6 169.6 50.1C168.292 51.6223 166.649 52.8204 164.8 53.6C162.9 54.4 160.7 54.8 158.3 54.8C155.8 54.8 153.7 54.4 151.7 53.6C149.851 52.8204 148.208 51.6223 146.9 50.1C145.6 48.6 144.6 46.8 143.9 44.7C143.2 42.5 142.8 40.1 142.8 37.5C142.8 34.8 143.2 32.4 143.9 30.3C144.6 28.1 145.6 26.3 146.9 24.8C148.208 23.2777 149.851 22.0796 151.7 21.3C153.7 20.5 155.8 20 158.3 20ZM200.8 24.8C200.6 25.1 200.4 25.3 200 25.3C199.8 25.3 199.5 25.1 199.1 24.9C198.7 24.6 198.1 24.3 197.5 23.9C196.9 23.5 196.1 23.2 195.1 22.9C194.2 22.7 193 22.5 191.7 22.5C190.548 22.4968 189.402 22.6653 188.3 23C187.3 23.4 186.5 23.9 185.7 24.5C185 25 184.5 25.7 184.1 26.5C183.702 27.2732 183.497 28.1306 183.5 29C183.5 30 183.7 30.9 184.3 31.6C184.8 32.3 185.6 32.9 186.4 33.4C187.3 33.9 188.3 34.3 189.4 34.7C190.6 35.1 191.7 35.4 192.9 35.8C194.068 36.0945 195.206 36.4962 196.3 37C197.5 37.4 198.5 38 199.4 38.6C200.2 39.3 200.9 40.1 201.5 41C202 42 202.3 43.2 202.3 44.5C202.305 45.906 202.033 47.2992 201.5 48.6C201 49.9 200.2 51 199.2 51.9C198.2 52.9 196.9 53.6 195.5 54.1C194 54.7 192.3 55 190.4 55C188.1 55 186 54.6 184.3 53.8C182.6 53.1 181 52.1 179.7 50.8L180.5 49.7C180.6 49.5 180.7 49.4 180.8 49.3C181 49.2 181.2 49.1 181.4 49.1C181.7 49.1 182.1 49.3 182.5 49.7C182.9 50 183.5 50.4 184.2 50.9C184.9 51.3 185.7 51.7 186.8 52C187.8 52.4 189.1 52.6 190.6 52.6C192 52.6 193.3 52.4 194.4 52C195.4 51.6 196.3 51 197.1 50.4C198.484 48.9793 199.271 47.0829 199.3 45.1C199.3 43.9 199 43 198.5 42.2C197.9 41.5 197.2 40.9 196.3 40.3C195.4 39.8 194.4 39.4 193.3 39C192.2 38.6 191 38.3 189.9 37.9C188.7 37.6 187.5 37.2 186.4 36.7C184.265 35.9908 182.433 34.5812 181.2 32.7C180.7 31.8 180.4 30.6 180.4 29.2C180.414 27.9808 180.688 26.7787 181.206 25.6746C181.723 24.5706 182.472 23.5904 183.4 22.8C184.4 22 185.6 21.3 186.9 20.8C188.3 20.3 189.9 20 191.6 20C193.7 20 195.5 20.3 197.1 20.9C198.7 21.5 200.2 22.4 201.5 23.7L200.8 24.8ZM223 22.5C221.3 22.5 219.7 22.7 218.3 23.3C217 23.8 215.8 24.6 214.8 25.6C213.7 26.6 212.9 27.9 212.3 29.3C211.7 30.7 211.3 32.3 211.1 34.1H233.3C233.3 32.3 233.1 30.6 232.6 29.2C232.1 27.8 231.4 26.5 230.5 25.5C229.6 24.6 228.5 23.8 227.2 23.3C226 22.7 224.6 22.5 223 22.5ZM223 20C224.9 20 226.6 20.4 228.3 21C229.9 21.7 231.3 22.6 232.5 23.9C233.7 25.2 234.6 26.7 235.3 28.5C235.9 30.4 236.3 32.5 236.3 34.9C236.3 35.4 236.2 35.7 236 35.9C235.9 36.1 235.7 36.2 235.3 36.2H210.9V36.8C210.9 39.3 211.2 41.6 211.8 43.5C212.4 45.4 213.2 47 214.3 48.3C215.4 49.6 216.7 50.6 218.3 51.3C219.8 51.9 221.5 52.3 223.4 52.3C226.055 52.336 228.674 51.6813 231 50.4C231.9 50 232.5 49.6 233 49.2C233.5 48.8 233.9 48.6 234.1 48.6C234.4 48.6 234.6 48.7 234.8 49L235.7 50.1C235.1 50.7 234.4 51.4 233.5 52C232.6 52.5 231.6 53.1 230.5 53.5C229.4 53.9 228.3 54.2 227 54.5C225.743 54.6992 224.473 54.7995 223.2 54.8C220.9 54.8 218.8 54.4 216.9 53.6C215 52.8 213.3 51.7 212 50.1C210.6 48.6 209.6 46.7 208.8 44.5C208.1 42.2 207.7 39.7 207.7 36.8C207.7 34.4 208 32.1 208.7 30.1C209.334 28.1497 210.354 26.3471 211.7 24.8C213.008 23.2777 214.651 22.0796 216.5 21.3C218.558 20.4377 220.768 19.9957 223 20Z" fill="black"/>
<path d="M63.9 33.3V30.6C63.9 28.3 63 26.2 61.3 24.2C60.2693 23.0515 59.0926 22.043 57.8 21.2C57.1 20.7 56.3 20.2 55.4 19.7C54.7 19.4 54.1 19 53.4 18.7C51.4156 17.8651 49.3778 17.1636 47.3 16.6C47.6 17.5 47.8 18.5 48 19.4L48.6 22.4L51.9 23.7C52.4 23.9 52.9 24.1 53.4 24.4C53.6 24.5 53.9 24.6 54.1 24.7C55 25.2 55.7 25.7 56.4 26.2C59 27.9 60.6 29.9 61.1 31.9C60.6 34 59 36 56.4 37.7L57.2 39.9C57.5 40.8 57.7 41.8 57.8 42.7C59.0926 41.857 60.2693 40.8485 61.3 39.7C63 37.7 63.9 35.6 63.9 33.3ZM24.9 48.9L21.7 46.1L22.4 48.6L24.9 48.9ZM30.7 46.6L31.9 47.5L34.4 49C34.5 49.1 34.6 49.2 34.7 49.2C36.1385 49.1996 37.5753 49.0994 39 48.9L41.5 48.6L44.5 48L47.3 47.3C49.3778 46.7364 51.4156 46.0349 53.4 45.2L52.7 42.5C52.6 42.3 52.6 42 52.5 41.7L51.9 40.2C50.9 40.7 49.7 41.1 48.6 41.5C47.8 41.8 46.9 42 46.1 42.2C46 42.3 45.9 42.3 45.8 42.3C44.8 42.6 43.9 42.8 42.9 42.9L41.4 43.2C39.9 43.5 38.4 43.6 36.8 43.8L31.9 44C30.3 44 28.7 43.9 27.1 43.8C28.2 44.8 29.5 45.7 30.7 46.6ZM11.2 21.4C11.2 21.6 11.3 21.9 11.4 22.2L12 23.7C13 23.2 14.2 22.8 15.3 22.4C16.1 22.1 17 21.9 17.8 21.7C17.9 21.6 18 21.6 18.1 21.6C19.1 21.4 20 21.1 21 21L22.5 20.7L27.1 20.1L31.9 20L36.8 20.1C35.7 19.1 34.4 18.2 33.2 17.3L31.9 16.4L29.5 14.9C29.4 14.8 29.3 14.7 29.2 14.7C27.7 14.7 26.3 14.9 24.9 15L22.4 15.3L19.4 15.9L16.6 16.6C14.5222 17.1636 12.4844 17.8651 10.5 18.7L11.2 21.4ZM39 15L42.2 17.8L41.5 15.3L39 15ZM2.8 31.9C3.3 29.9 4.9 27.9 7.5 26.2L6.7 24C6.4 23.1 6.2 22.1 6 21.2C4.7 22.1 3.5 23.2 2.6 24.2C0.9 26.2 0 28.3 0 30.6V33.3C0 35.6 0.9 37.7 2.6 39.7C3.5 40.7 4.7 41.7 6 42.7L8.5 44.2C9.2 44.5 9.8 44.9 10.5 45.2C12.4844 46.0349 14.5222 46.7364 16.6 47.3C16.3 46.4 16.1 45.4 15.9 44.5L15.3 41.5L12 40.2C11.5 40 11 39.8 10.5 39.5C10.3 39.4 10 39.3 9.8 39.2C8.9 38.7 8.2 38.2 7.5 37.7C4.9 36 3.3 34 2.8 31.9Z" fill="#2F577E"/>
<path d="M39 48.9L34.7 49.2C35.4 49.7 36.2 50.1 36.9 50.4L39 48.9ZM55.5 10.3L53.6 8.4C51.8638 6.75502 49.5898 5.79568 47.2 5.7C45.8 5.6 44.3 5.8 42.7 6.1C41.8 6.2 40.8 6.5 39.9 6.7C39.2 6.9 38.5 7.2 37.7 7.5C35.7099 8.27269 33.7725 9.17462 31.9 10.2L34.5 11.8C35.3 12.3 36.1 12.9 36.9 13.5C38 12.9 39.1 12.4 40.2 12L41.7 11.4C42 11.3 42.3 11.3 42.5 11.2C43.4 10.9 44.3 10.7 45.2 10.5C48.2 10 50.8 10.3 52.6 11.3" fill="#F4B563"/>
<path d="M52.6 11.3C53.6 13.1 53.9 15.7 53.4 18.7C54.1 19 54.7 19.4 55.4 19.7C56.3 20.2 57.1 20.7 57.8 21.2C58.1 19.6 58.3 18.1 58.2 16.7C58 14.1 57.1 11.9 55.5 10.3C55.2 9.9 54.9 9.7 54.5 9.4M41.4 43.2L42.9 42.9C43.9 42.8 44.8 42.6 45.8 42.3C45.9 42.3 46 42.3 46.1 42.2C47.1 41.2 48 40.1 48.9 39L50.4 36.9L52.2 34.5L53.7 32C54.8 30 55.7 28 56.4 26.2L54.1 24.7C53.9 24.6 53.6 24.5 53.4 24.4C52.9 24.1 52.4 23.9 51.9 23.7C51.5 24.8 51 25.9 50.4 27C50.1 27.7 49.7 28.5 49.2 29.2C49.2 29.3 49.1 29.4 49 29.5C48.6 30.3 48 31.1 47.5 32L46.6 33.2L43.8 36.8C42.7 38.1 41.6 39.3 40.4 40.4C39.3 41.6 38.1 42.7 36.8 43.8L41.4 43.2ZM24.9 15C26.3 14.8 27.7 14.7 29.2 14.7C28.5 14.2 27.7 13.8 27 13.5C26.3 13.9 25.6 14.5 24.9 15ZM11.3 52.6C10.3 50.8 10 48.2 10.5 45.2C9.8 44.9 9.2 44.5 8.5 44.2L6 42.7C5.8 44.3 5.6 45.8 5.7 47.2C5.9 49.8 6.8 52 8.4 53.6L10.3 55.5C11.9 57.1 14.1 58 16.7 58.2C18.1 58.3 19.6 58.1 21.2 57.9L24 57.2C24.7 57 25.4 56.7 26.2 56.4C28 55.7 30 54.8 31.9 53.7L29.4 52.2L27 50.5L23.7 51.9L22.2 52.5C21.9 52.6 21.6 52.7 21.4 52.7C20.5 53 19.6 53.2 18.7 53.4C15.7 53.9 13.1 53.6 11.3 52.6ZM9.8 39.2C10 39.3 10.3 39.4 10.5 39.5C11 39.8 11.5 40 12 40.2C12.4 39.1 12.9 38 13.5 36.9C13.8 36.2 14.2 35.4 14.7 34.7C14.7 34.6 14.8 34.5 14.9 34.4C15.3 33.6 15.9 32.8 16.4 31.9L17.3 30.7L20.1 27.1C21.2 25.8 22.3 24.6 23.5 23.5C24.6 22.3 25.8 21.2 27.1 20.1L22.5 20.7L21 21C20 21.1 19.1 21.4 18.1 21.6C18 21.6 17.9 21.6 17.8 21.7C16.8 22.7 15.9 23.8 15 24.9L13.4 27C12.9 27.8 12.3 28.6 11.7 29.4L10.2 31.9C9.1 33.9 8.2 35.9 7.5 37.7L9.8 39.2Z" fill="#F4B563"/>
<path d="M15 39C14.8006 37.5753 14.7004 36.1386 14.7 34.7C14.2 35.4 13.8 36.2 13.5 36.9C13.9 37.6 14.5 38.3 15 39ZM11.3 11.3C13.1 10.3 15.7 10 18.7 10.5C19 9.8 19.4 9.2 19.7 8.5C20.2 7.6 20.7 6.8 21.2 6.1C19.6 5.8 18.1 5.6 16.7 5.7C14.1 5.9 11.9 6.8 10.3 8.4L8.4 10.3C6.75502 12.0362 5.79568 14.3102 5.7 16.7C5.6 18.1 5.8 19.6 6 21.2L6.7 24C6.9 24.7 7.2 25.4 7.5 26.2C8.27269 28.1901 9.17461 30.1275 10.2 32L11.7 29.4L13.4 27L12 23.7L11.4 22.2C11.3 21.9 11.2 21.6 11.2 21.4C10.9 20.5 10.7 19.6 10.5 18.7C10 15.7 10.3 13.1 11.3 11.3ZM48.9 24.9L49.2 29.2C49.7 28.5 50.1 27.7 50.4 27C50 26.3 49.4 25.6 48.9 24.9ZM43.2 22.5L42.9 21C42.8 20 42.5 19.1 42.3 18.1C42.3 18 42.3 17.9 42.2 17.8C41.2 16.8 40.1 15.9 39 15L36.9 13.5L34.5 11.7L31.9 10.2C30 9.1 28 8.2 26.2 7.5L24.7 9.8C24.6 10 24.5 10.3 24.4 10.5C24.1 11 23.9 11.5 23.7 12C24.8 12.4 25.9 12.9 27 13.5C27.7 13.8 28.5 14.2 29.2 14.7C29.3 14.7 29.4 14.8 29.5 14.9C30.3 15.3 31.1 15.9 31.9 16.4C32.4 16.7 32.8 17 33.2 17.3L36.8 20.1C38.1 21.2 39.3 22.3 40.4 23.5C41.6 24.6 42.7 25.8 43.8 27.1L43.2 22.5ZM20.7 41.4L21 42.9C21.1 43.9 21.4 44.8 21.6 45.8C21.6 45.9 21.6 46 21.7 46.1C22.7 47.1 23.8 48 24.9 48.9L27 50.4L29.4 52.2L31.9 53.7C33.9 54.8 35.9 55.7 37.7 56.4L39.2 54.1C39.3 53.9 39.4 53.6 39.5 53.4C39.8 52.9 40 52.4 40.2 51.9C39.1 51.5 38 51 36.9 50.4C36.2 50.1 35.4 49.7 34.7 49.2C34.6 49.2 34.5 49.1 34.4 49C33.6 48.6 32.8 48 31.9 47.5L30.7 46.6L27.1 43.8C25.8 42.7 24.6 41.6 23.5 40.4C22.3 39.3 21.2 38.1 20.1 36.8L20.7 41.4ZM53.6 55.5L55.5 53.6C57.1 52 58 49.8 58.2 47.2C58.3 45.8 58.1 44.3 57.8 42.7C57.7 41.8 57.5 40.8 57.2 39.9C57 39.2 56.7 38.5 56.4 37.7C55.7 35.9 54.8 33.9 53.7 32L52.2 34.5L50.4 36.9C51 38 51.5 39.1 51.9 40.2L52.5 41.7C52.6 42 52.6 42.3 52.7 42.5C53 43.4 53.2 44.3 53.4 45.2C53.9 48.2 53.6 50.8 52.6 52.6C50.8 53.6 48.2 53.9 45.2 53.4C44.9 54.1 44.5 54.7 44.2 55.4C43.7 56.3 43.2 57.1 42.7 57.8C44.3 58.1 45.8 58.3 47.2 58.2C49.8 58 52 57.1 53.6 55.5Z" fill="#5CAFCD"/>
<path d="M17.3 30.7L16.4 32L14.9 34.4C14.8 34.5 14.7 34.6 14.7 34.7C14.7004 36.1385 14.8006 37.5753 15 39L15.3 41.5L15.9 44.5L16.6 47.3C17.1636 49.3778 17.8651 51.4156 18.7 53.4L21.4 52.7C21.6 52.6 21.9 52.6 22.2 52.5L23.7 51.9C23.2 50.9 22.8 49.7 22.4 48.6C22.1 47.8 21.9 46.9 21.7 46.1C21.6 46 21.6 45.9 21.6 45.8C21.4 44.8 21.1 43.9 21 42.9L20.7 41.4C20.4 39.9 20.3 38.4 20.1 36.8L19.9 32L20.1 27.1C19.1 28.2 18.2 29.5 17.3 30.7ZM48.9 39L46.1 42.2L48.6 41.5L48.9 39ZM15 24.9L17.8 21.7L15.3 22.4L15 24.9ZM46.6 33.2L47.5 32L49 29.5C49.1 29.4 49.2 29.3 49.2 29.2C49.2 27.8 49 26.3 48.9 24.9L48.6 22.4L48 19.4L47.3 16.6C46.7364 14.5222 46.0349 12.4844 45.2 10.5L42.5 11.2C42.3 11.3 42 11.3 41.7 11.4L40.2 12C40.7 13 41.1 14.2 41.5 15.3C41.8 16.1 42 17 42.2 17.8C42.3 17.9 42.3 18 42.3 18.1C42.5 19.1 42.8 20 42.9 21L43.2 22.5L43.8 27.1L43.9 32L43.8 36.8C44.8 35.7 45.7 34.4 46.6 33.2ZM42.7 6C41.7 4.7 40.7 3.5 39.7 2.6C37.7 0.9 35.6 0 33.3 0H30.6C28.3 0 26.2 0.9 24.2 2.6C23.2 3.5 22.1 4.7 21.2 6L19.7 8.5C19.4 9.2 19 9.8 18.7 10.5C17.8651 12.4844 17.1636 14.5222 16.6 16.6C17.5 16.3 18.5 16.1 19.4 15.9L22.4 15.3L23.7 12C23.9 11.5 24.1 11 24.4 10.5C24.5 10.3 24.6 10 24.7 9.8C25.2 8.9 25.7 8.2 26.2 7.5C27.9 4.9 29.9 3.3 31.9 2.8C34 3.3 36 4.9 37.7 7.5L39.9 6.7M30.6 63.9H33.3C35.6 63.9 37.7 63 39.7 61.3C41.4834 59.5665 42.9998 57.5783 44.2 55.4C44.5 54.7 44.9 54.1 45.2 53.4C46.0349 51.4156 46.7364 49.3778 47.3 47.3L44.5 48L41.5 48.6L40.2 51.9C40 52.4 39.8 52.9 39.5 53.4C39.4 53.6 39.3 53.9 39.2 54.1C38.7 55 38.2 55.7 37.7 56.4C36 59 34 60.6 31.9 61.1C29.9 60.6 27.9 59 26.2 56.4L24 57.2L21.2 57.8C22.043 59.0926 23.0515 60.2693 24.2 61.3C26.2 63 28.3 63.9 30.6 63.9Z" fill="#47B178"/>
</g>
<defs>
<clipPath id="clip0_1_2">
<rect width="237" height="64" fill="white"/>
</clipPath>
</defs>
</svg>
