<svg width="140" height="88" viewBox="0 0 140 88" fill="none" xmlns="http://www.w3.org/2000/svg">
<g clip-path="url(#clip0_0_3)">
<path d="M116.264 4.88674C90.6002 -6.29825 71.065 4.88674 71.065 4.88674C82.5563 8.01854 87.1528 20.9931 88.685 30.3885H138.098C132.735 12.0451 116.264 4.88674 116.264 4.88674Z" fill="#DBE2E9"/>
<path d="M91.3663 46.6837H71.065V52.0527H89.8341C88.685 61.0009 84.8545 78.8972 71.065 82.4765C71.065 82.4765 90.9832 93.6618 116.264 82.4765C116.264 82.4765 138.481 72.6335 139.63 46.6837C139.63 46.6837 91.3663 46.6837 91.3663 46.6837Z" fill="#FFCD00"/>
<path d="M68.5649 4.88677C68.5649 4.88677 48.6466 -6.29829 23.3657 4.88677C23.3657 4.88677 1.14913 14.7296 0 40.6789H49.4127C49.4127 41.1263 50.1788 10.2556 68.5649 4.88677Z" fill="#009BD5"/>
<path d="M68.5649 82.924C68.5649 82.924 48.6466 94.1093 23.3657 82.924C23.3657 82.924 1.14913 73.081 0 47.1313H49.4127C49.4127 46.6839 50.1788 77.5551 68.5649 82.924Z" fill="#00263E"/>
</g>
<defs>
<clipPath id="clip0_0_3">
<rect width="140" height="88" fill="white"/>
</clipPath>
</defs>
</svg>
