<?xml version="1.0" encoding="UTF-8"?>
<svg width="301px" height="302px" viewBox="0 0 301 302" version="1.1" xmlns="http://www.w3.org/2000/svg" xmlns:xlink="http://www.w3.org/1999/xlink">
    <!-- Generator: Sketch 42 (36781) - http://www.bohemiancoding.com/sketch -->
    <title>html</title>
    <desc>Created with Sketch.</desc>
    <defs></defs>
    <g id="Page-1" stroke="none" stroke-width="1" fill="none" fill-rule="evenodd">
        <g id="html" transform="translate(1.000000, 1.000000)">
            <path d="M294.726901,0.164285714 L4.68830409,0.164285714 C2.09883041,0.164285714 0,2.30059524 0,4.93571429 L0,66.0154762 L0,295.064286 C0,297.699405 2.09883041,299.83631 4.68830409,299.83631 L294.727485,299.83631 C297.316959,299.83631 299.415789,297.7 299.415789,295.064286 L299.415789,66.0154762 L299.415789,4.93571429 C299.415205,2.30059524 297.316959,0.164285714 294.726901,0.164285714 Z M290.039181,290.292262 L9.37602339,290.292262 L9.37602339,70.7875 L290.038596,70.7875 L290.038596,290.292262 L290.039181,290.292262 Z M290.039181,61.2434524 L9.37602339,61.2434524 L9.37602339,9.7077381 L290.038596,9.7077381 L290.038596,61.2434524 L290.039181,61.2434524 Z" id="Shape" fill="#000000" fill-rule="nonzero"></path>
            <path d="M154.708187,15.4339286 C143.850877,15.4339286 135.018129,24.425 135.018129,35.4755952 C135.018129,46.5261905 143.851462,55.5172619 154.708187,55.5172619 C165.564912,55.5172619 174.398246,46.5267857 174.398246,35.4755952 C174.398246,24.4244048 165.565497,15.4339286 154.708187,15.4339286 Z M154.708187,45.9738095 C149.021053,45.9738095 144.394152,41.2642857 144.394152,35.4755952 C144.394152,29.6869048 149.021053,24.977381 154.708187,24.977381 C160.395322,24.977381 165.022222,29.6869048 165.022222,35.4755952 C165.022222,41.2642857 160.395322,45.9738095 154.708187,45.9738095 Z" id="Shape" fill="#000000" fill-rule="nonzero"></path>
            <path d="M99.7011696,15.4339286 C88.8438596,15.4339286 80.0111111,24.425 80.0111111,35.4755952 C80.0111111,46.5261905 88.8444444,55.5172619 99.7011696,55.5172619 C110.557895,55.5172619 119.391228,46.5267857 119.391228,35.4755952 C119.391228,24.4244048 110.557895,15.4339286 99.7011696,15.4339286 Z M99.7011696,45.9738095 C94.0140351,45.9738095 89.3871345,41.2642857 89.3871345,35.4755952 C89.3871345,29.6869048 94.0140351,24.977381 99.7011696,24.977381 C105.388304,24.977381 110.015205,29.6869048 110.015205,35.4755952 C110.015205,41.2642857 105.387719,45.9738095 99.7011696,45.9738095 Z" id="Shape" fill="#000000" fill-rule="nonzero"></path>
            <path d="M44.6935673,15.4339286 C33.8362573,15.4339286 25.0035088,24.425 25.0035088,35.4755952 C25.0035088,46.5261905 33.8368421,55.5172619 44.6935673,55.5172619 C55.5502924,55.5172619 64.3836257,46.5267857 64.3836257,35.4755952 C64.3836257,24.4244048 55.5508772,15.4339286 44.6935673,15.4339286 Z M44.6935673,45.9738095 C39.0064327,45.9738095 34.3795322,41.2642857 34.3795322,35.4755952 C34.3795322,29.6869048 39.0064327,24.977381 44.6935673,24.977381 C50.3807018,24.977381 55.0076023,29.6869048 55.0076023,35.4755952 C55.0076023,41.2642857 50.3807018,45.9738095 44.6935673,45.9738095 Z" id="Shape" fill="#000000" fill-rule="nonzero"></path>
            <path d="M98.7584795,135.751786 C98.8602339,131.929167 97.4935673,128.295238 94.9093567,125.519048 C92.3251462,122.742857 88.8339181,121.157738 85.0789474,121.054167 C81.3345029,120.95 77.7538012,122.342262 75.0263158,124.972024 L27.519883,170.781548 C24.674269,173.525595 23.074269,177.3875 23.1298246,181.377381 C23.1853801,185.367262 24.8929825,189.182143 27.8146199,191.842262 L75.3216374,235.107738 C77.9046784,237.459524 81.2333333,238.754167 84.6947368,238.754167 L84.6964912,238.754167 C88.6947368,238.754167 92.5157895,237.016071 95.1812865,233.983929 C100.352047,228.10119 99.8573099,219.033333 94.0777778,213.769643 L57.9555556,180.872619 L94.3730994,145.756548 C97.0988304,143.127381 98.6567251,139.57381 98.7584795,135.751786 Z M87.922807,138.828571 L47.8093567,177.508929 C46.8578947,178.42619 46.3274854,179.707143 46.3461988,181.041667 C46.3649123,182.375 46.9309942,183.639881 47.9076023,184.529762 L87.8245614,220.882738 C89.7508772,222.636905 89.9163743,225.659524 88.1929825,227.620833 C87.2918129,228.646429 86.0497076,229.21131 84.6947368,229.21131 C83.5421053,229.21131 82.4333333,228.779762 81.5725146,227.995238 L34.0660819,184.730357 C33.0923977,183.843452 32.522807,182.572024 32.5040936,181.242262 C32.4859649,179.9125 33.0192982,178.625 33.9672515,177.710714 L81.4736842,131.90119 C82.351462,131.054762 83.4906433,130.592857 84.6947368,130.592857 C84.7380117,130.592857 84.7818713,130.593452 84.8245614,130.594643 C86.0766082,130.629167 87.2397661,131.157738 88.1011696,132.082738 C88.9625731,133.007738 89.4181287,134.219048 89.3842105,135.493452 C89.351462,136.767857 88.8321637,137.952381 87.922807,138.828571 Z" id="Shape" fill="#000000" fill-rule="nonzero"></path>
            <path d="M271.895906,170.782143 L224.389474,124.972619 C218.760234,119.544643 209.840936,119.78869 204.505848,125.519643 C199.173099,131.249405 199.414035,140.328571 205.043275,145.757143 L241.460819,180.873214 L205.338596,213.770238 C199.559649,219.033929 199.064327,228.10119 204.235088,233.985119 C206.900585,237.016071 210.721637,238.754762 214.718713,238.754762 L214.720468,238.754762 C218.183041,238.754762 221.512281,237.459524 224.094152,235.107738 L271.600585,191.842857 C274.522807,189.181548 276.230409,185.366667 276.284795,181.376786 C276.340936,177.3875 274.740936,173.525595 271.895906,170.782143 Z M265.348538,184.730952 L217.842105,227.995833 C216.981287,228.779762 215.873099,229.211905 214.719883,229.211905 L214.719298,229.211905 C213.366082,229.211905 212.123977,228.647024 211.222807,227.622024 C209.49883,225.66131 209.663743,222.638095 211.590058,220.883333 L251.506433,184.530357 C252.483626,183.641071 253.049708,182.37619 253.067836,181.042262 C253.08655,179.708333 252.55614,178.427381 251.604678,177.509524 L211.491228,138.829167 C209.61462,137.019643 209.533918,133.992857 211.311696,132.083333 C212.232164,131.094643 213.473099,130.595833 214.716374,130.595833 C215.874269,130.595833 217.035088,131.028571 217.939181,131.90119 L265.445614,177.710714 C266.394737,178.625 266.926901,179.9125 266.908772,181.242262 L266.908772,181.243452 L266.909357,181.243452 C266.891813,182.572619 266.323392,183.844048 265.348538,184.730952 Z" id="Shape" fill="#000000" fill-rule="nonzero"></path>
            <path d="M185.791228,136.733929 C184.81462,133.041071 182.483626,129.956548 179.228655,128.049405 C179.228655,128.04881 179.22807,128.04881 179.22807,128.04881 C172.505848,124.111905 163.891228,126.473214 160.022222,133.3125 L112.515789,217.297024 C108.646199,224.1375 110.966082,232.907143 117.687135,236.846429 C119.820468,238.095833 122.24386,238.757143 124.694737,238.757143 C129.715205,238.757143 134.388889,236.007738 136.891813,231.582738 L184.398246,147.59881 C186.272515,144.284524 186.767836,140.425595 185.791228,136.733929 Z M176.273099,142.835714 L128.767251,226.820238 C127.932749,228.295833 126.37193,229.2125 124.695322,229.2125 C123.871345,229.2125 123.087719,228.998214 122.364912,228.575 C120.124561,227.2625 119.351462,224.33869 120.640936,222.058333 L168.147953,138.07381 C169.014035,136.542262 170.594737,135.684524 172.218713,135.684524 C173.011696,135.684524 173.815205,135.889286 174.550292,136.320238 C175.635673,136.955952 176.412281,137.983929 176.737427,139.214286 C177.063158,140.444643 176.898246,141.730952 176.273099,142.835714 Z" id="Shape" fill="#000000" fill-rule="nonzero"></path>
            <path d="M294.726901,0.164285714 L4.68830409,0.164285714 C2.09883041,0.164285714 0,2.30059524 0,4.93571429 L0,66.0154762 L0,295.064286 C0,297.699405 2.09883041,299.83631 4.68830409,299.83631 L294.727485,299.83631 C297.316959,299.83631 299.415789,297.7 299.415789,295.064286 L299.415789,66.0154762 L299.415789,4.93571429 C299.415205,2.30059524 297.316959,0.164285714 294.726901,0.164285714 Z" id="Path" stroke="#979797" fill="#000000"></path>
            <polygon id="Path" stroke="#FCFCFC" fill="#FCFCFC" points="290.039181 290.292262 9.37602339 290.292262 9.37602339 70.7875 290.038596 70.7875 290.038596 290.292262"></polygon>
            <polygon id="Path" stroke="#402125" fill="#402125" points="290.039181 61.2434524 9.37602339 61.2434524 9.37602339 9.7077381 290.038596 9.7077381 290.038596 61.2434524"></polygon>
            <path d="M154.708187,15.4339286 C143.850877,15.4339286 135.018129,24.425 135.018129,35.4755952 C135.018129,46.5261905 143.851462,55.5172619 154.708187,55.5172619 C165.564912,55.5172619 174.398246,46.5267857 174.398246,35.4755952 C174.398246,24.4244048 165.565497,15.4339286 154.708187,15.4339286 Z" id="Path" stroke="#000000" fill="#000000"></path>
            <path d="M154.708187,45.9738095 C149.021053,45.9738095 144.394152,41.2642857 144.394152,35.4755952 C144.394152,29.6869048 149.021053,24.977381 154.708187,24.977381 C160.395322,24.977381 165.022222,29.6869048 165.022222,35.4755952 C165.022222,41.2642857 160.395322,45.9738095 154.708187,45.9738095 Z" id="Path" stroke="#75BD59" fill="#75BD59"></path>
            <path d="M99.7011696,15.4339286 C88.8438596,15.4339286 80.0111111,24.425 80.0111111,35.4755952 C80.0111111,46.5261905 88.8444444,55.5172619 99.7011696,55.5172619 C110.557895,55.5172619 119.391228,46.5267857 119.391228,35.4755952 C119.391228,24.4244048 110.557895,15.4339286 99.7011696,15.4339286 Z" id="Path" stroke="#000000" fill="#000000"></path>
            <path d="M99.7011696,45.9738095 C94.0140351,45.9738095 89.3871345,41.2642857 89.3871345,35.4755952 C89.3871345,29.6869048 94.0140351,24.977381 99.7011696,24.977381 C105.388304,24.977381 110.015205,29.6869048 110.015205,35.4755952 C110.015205,41.2642857 105.387719,45.9738095 99.7011696,45.9738095 Z" id="Path" stroke="#F7B239" fill="#F7B239"></path>
            <path d="M44.6935673,15.4339286 C33.8362573,15.4339286 25.0035088,24.425 25.0035088,35.4755952 C25.0035088,46.5261905 33.8368421,55.5172619 44.6935673,55.5172619 C55.5502924,55.5172619 64.3836257,46.5267857 64.3836257,35.4755952 C64.3836257,24.4244048 55.5508772,15.4339286 44.6935673,15.4339286 Z" id="Path" stroke="#000000" fill="#000000"></path>
            <path d="M44.6935673,45.9738095 C39.0064327,45.9738095 34.3795322,41.2642857 34.3795322,35.4755952 C34.3795322,29.6869048 39.0064327,24.977381 44.6935673,24.977381 C50.3807018,24.977381 55.0076023,29.6869048 55.0076023,35.4755952 C55.0076023,41.2642857 50.3807018,45.9738095 44.6935673,45.9738095 Z" id="Path" stroke="#CF4D6F" fill="#CF4D6F"></path>
            <path d="M98.7584795,135.751786 C98.8602339,131.929167 97.4935673,128.295238 94.9093567,125.519048 C92.3251462,122.742857 88.8339181,121.157738 85.0789474,121.054167 C81.3345029,120.95 77.7538012,122.342262 75.0263158,124.972024 L27.519883,170.781548 C24.674269,173.525595 23.074269,177.3875 23.1298246,181.377381 C23.1853801,185.367262 24.8929825,189.182143 27.8146199,191.842262 L75.3216374,235.107738 C77.9046784,237.459524 81.2333333,238.754167 84.6947368,238.754167 L84.6964912,238.754167 C88.6947368,238.754167 92.5157895,237.016071 95.1812865,233.983929 C100.352047,228.10119 99.8573099,219.033333 94.0777778,213.769643 L57.9555556,180.872619 L94.3730994,145.756548 C97.0988304,143.127381 98.6567251,139.57381 98.7584795,135.751786 Z" id="Path" stroke="#979797" fill="#000000"></path>
            <path d="M87.922807,138.828571 L47.8093567,177.508929 C46.8578947,178.42619 46.3274854,179.707143 46.3461988,181.041667 C46.3649123,182.375 46.9309942,183.639881 47.9076023,184.529762 L87.8245614,220.882738 C89.7508772,222.636905 89.9163743,225.659524 88.1929825,227.620833 C87.2918129,228.646429 86.0497076,229.21131 84.6947368,229.21131 C83.5421053,229.21131 82.4333333,228.779762 81.5725146,227.995238 L34.0660819,184.730357 C33.0923977,183.843452 32.522807,182.572024 32.5040936,181.242262 C32.4859649,179.9125 33.0192982,178.625 33.9672515,177.710714 L81.4736842,131.90119 C82.351462,131.054762 83.4906433,130.592857 84.6947368,130.592857 C84.7380117,130.592857 84.7818713,130.593452 84.8245614,130.594643 C86.0766082,130.629167 87.2397661,131.157738 88.1011696,132.082738 C88.9625731,133.007738 89.4181287,134.219048 89.3842105,135.493452 C89.351462,136.767857 88.8321637,137.952381 87.922807,138.828571 Z" id="Path" stroke="#D9554C" fill="#D9554C"></path>
            <path d="M271.895906,170.782143 L224.389474,124.972619 C218.760234,119.544643 209.840936,119.78869 204.505848,125.519643 C199.173099,131.249405 199.414035,140.328571 205.043275,145.757143 L241.460819,180.873214 L205.338596,213.770238 C199.559649,219.033929 199.064327,228.10119 204.235088,233.985119 C206.900585,237.016071 210.721637,238.754762 214.718713,238.754762 L214.720468,238.754762 C218.183041,238.754762 221.512281,237.459524 224.094152,235.107738 L271.600585,191.842857 C274.522807,189.181548 276.230409,185.366667 276.284795,181.376786 C276.340936,177.3875 274.740936,173.525595 271.895906,170.782143 Z" id="Path" stroke="#979797" fill="#000000"></path>
            <path d="M265.348538,184.730952 L217.842105,227.995833 C216.981287,228.779762 215.873099,229.211905 214.719883,229.211905 L214.719298,229.211905 C213.366082,229.211905 212.123977,228.647024 211.222807,227.622024 C209.49883,225.66131 209.663743,222.638095 211.590058,220.883333 L251.506433,184.530357 C252.483626,183.641071 253.049708,182.37619 253.067836,181.042262 C253.08655,179.708333 252.55614,178.427381 251.604678,177.509524 L211.491228,138.829167 C209.61462,137.019643 209.533918,133.992857 211.311696,132.083333 C212.232164,131.094643 213.473099,130.595833 214.716374,130.595833 C215.874269,130.595833 217.035088,131.028571 217.939181,131.90119 L265.445614,177.710714 C266.394737,178.625 266.926901,179.9125 266.908772,181.242262 L266.908772,181.243452 L266.909357,181.243452 C266.891813,182.572619 266.323392,183.844048 265.348538,184.730952 Z" id="Path" stroke="#D9554C" fill="#D9554C"></path>
            <path d="M185.791228,136.733929 C184.81462,133.041071 182.483626,129.956548 179.228655,128.049405 C179.228655,128.04881 179.22807,128.04881 179.22807,128.04881 C172.505848,124.111905 163.891228,126.473214 160.022222,133.3125 L112.515789,217.297024 C108.646199,224.1375 110.966082,232.907143 117.687135,236.846429 C119.820468,238.095833 122.24386,238.757143 124.694737,238.757143 C129.715205,238.757143 134.388889,236.007738 136.891813,231.582738 L184.398246,147.59881 C186.272515,144.284524 186.767836,140.425595 185.791228,136.733929 Z" id="Path" stroke="#979797" fill="#000000"></path>
            <path d="M176.273099,142.835714 L128.767251,226.820238 C127.932749,228.295833 126.37193,229.2125 124.695322,229.2125 C123.871345,229.2125 123.087719,228.998214 122.364912,228.575 C120.124561,227.2625 119.351462,224.33869 120.640936,222.058333 L168.147953,138.07381 C169.014035,136.542262 170.594737,135.684524 172.218713,135.684524 C173.011696,135.684524 173.815205,135.889286 174.550292,136.320238 C175.635673,136.955952 176.412281,137.983929 176.737427,139.214286 C177.063158,140.444643 176.898246,141.730952 176.273099,142.835714 Z" id="Path" stroke="#D9554C" fill="#D9554C"></path>
        </g>
    </g>
</svg>