<svg preserveAspectRatio="none" width="300" height="300" viewBox="0 0 302 302" xmlns="http://www.w3.org/2000/svg"><g fill="none" fill-rule="evenodd"><path d="M28.662 282.003c0-6.457-5.224-11.711-11.647-11.711s-11.648 5.253-11.648 11.71c0 6.458 5.225 11.711 11.648 11.711s11.647-5.254 11.647-11.71z" fill="#000"/><path d="M36.486 281.388c0 10.06-8.183 18.244-18.243 18.244C8.183 299.632 0 291.448 0 281.388s8.184-18.243 18.243-18.243c10.06 0 18.243 8.184 18.243 18.243z" fill="#000"/><path d="M27.849 281.467c0-5.438-3.687-9.845-9.381-9.845-5.694 0-10.31 4.407-10.31 9.845 0 5.438 4.616 9.846 10.31 9.846 5.694 0 9.381-4.408 9.381-9.846z" fill="#FCFCFC"/><path d="M295.318 92.079c0 48.268-39.128 87.396-87.397 87.396a87.663 87.663 0 0 1-19.497-2.185c-4.97 33.038-33.476 58.369-67.9 58.369-37.924 0-68.668-30.745-68.668-68.669 0-2.999.193-5.953.566-8.85-26.276-13.433-44.264-40.768-44.264-72.304 0-44.82 36.334-81.154 81.154-81.154 22.736 0 43.285 9.354 58.018 24.419 15.71-15.12 37.065-24.42 60.59-24.42 48.269 0 87.398 39.13 87.398 87.398z" fill="#FCFCFC" fill-rule="nonzero"/><path d="M110.895 107.108c-6.754 6.753-17.703 6.753-24.457 0L55.867 76.536c-6.754-6.753-6.754-17.702 0-24.456 6.753-6.754 17.702-6.754 24.457 0l30.57 30.57c6.753 6.754 6.753 17.704 0 24.458z" fill="#75BD59" fill-rule="nonzero"/><path d="M110.895 52.08c6.753 6.753 6.753 17.702 0 24.456l-30.571 30.572c-6.754 6.753-17.703 6.753-24.457 0-6.754-6.754-6.754-17.703 0-24.457l30.57-30.571c6.754-6.753 17.704-6.753 24.458 0z" fill="#75BD59" fill-rule="nonzero"/><path fill="#F7B239" fill-rule="nonzero" d="M83.38 55.137l24.458 24.457L83.38 104.05 58.924 79.594z"/><path d="M255.408 70.01v42.262a8.64 8.64 0 0 1-5.908 8.196l-45.927 15.31-45.928-15.31a8.64 8.64 0 0 1-5.908-8.196V70.01c0-5.897 5.777-10.06 11.371-8.197l40.465 13.488 40.464-13.488c5.594-1.863 11.37 2.3 11.37 8.197z" fill="#D9554C" fill-rule="nonzero"/><path d="M255.408 70.011v42.261a8.64 8.64 0 0 1-5.908 8.197l-45.927 15.308V75.303l40.464-13.488c5.594-1.864 11.37 2.3 11.37 8.196z" fill="#D9554C" fill-rule="nonzero"/><path d="M90.3 79.95a6.75 6.75 0 1 1-13.5 0 6.75 6.75 0 0 1 13.5 0z" fill="#000" fill-rule="nonzero"/><path d="M58.208 238.652c0-7.744-6.3-14.046-14.046-14.046-7.746 0-14.046 6.301-14.046 14.046 0 7.745 6.3 14.046 14.046 14.046 7.746 0 14.046-6.301 14.046-14.046z" stroke="#FCFCFC" fill="#FCFCFC"/><path d="M67.67 238.75c0 12.908-10.502 23.41-23.41 23.41-12.91 0-23.41-10.502-23.41-23.41 0-12.91 10.5-23.41 23.41-23.41 12.908 0 23.41 10.5 23.41 23.41zm-9.462-.098c0-7.744-6.3-14.046-14.046-14.046-7.746 0-14.046 6.301-14.046 14.046 0 7.745 6.3 14.046 14.046 14.046 7.746 0 14.046-6.301 14.046-14.046zm93.53-101.314h-18.184a14.082 14.082 0 0 0-13.375 9.64l-14.435 43.306a4.729 4.729 0 0 1-4.492 3.238 4.72 4.72 0 0 1-4.194-2.538l-16.084-30.706a4.682 4.682 0 0 0-8.295 4.346l16.084 30.706a14.06 14.06 0 0 0 12.489 7.556 14.082 14.082 0 0 0 13.375-9.64l14.436-43.306a4.729 4.729 0 0 1 4.49-3.238h18.184a4.681 4.681 0 0 0 4.682-4.682 4.681 4.681 0 0 0-4.682-4.682zM260.09 70.011v42.26c0 5.744-3.661 10.822-9.11 12.638l-45.928 15.31a4.678 4.678 0 0 1-.667.164c-.024.004-.047.012-.071.016a4.64 4.64 0 0 1-.742.06c-.155 0-.311-.021-.466-.037-.088-.009-.176-.008-.262-.021-.078-.013-.155-.04-.233-.055-.166-.035-.332-.07-.494-.121l-.025-.007-45.928-15.309a13.303 13.303 0 0 1-9.11-12.637v-42.26c0-4.335 2.017-8.273 5.532-10.808 3.517-2.534 7.89-3.2 12.002-1.831l38.983 12.994 38.984-12.994c4.11-1.37 8.485-.704 12.001 1.83 3.517 2.535 5.534 6.474 5.534 10.808zm-61.2 8.667l-37.262-12.421a3.913 3.913 0 0 0-3.565.543 3.916 3.916 0 0 0-1.643 3.211v42.261a3.953 3.953 0 0 0 2.706 3.754l39.765 13.255V78.678zm51.836-8.667a3.915 3.915 0 0 0-1.644-3.211 3.913 3.913 0 0 0-3.564-.544l-37.263 12.42v50.605l39.766-13.255a3.952 3.952 0 0 0 2.705-3.754V70.01zM300 92.079c0 50.772-41.306 92.078-92.079 92.078a92.299 92.299 0 0 1-15.757-1.364c-7.341 33.495-37.072 57.548-71.64 57.548-40.445 0-73.35-32.905-73.35-73.351 0-2.33.016-3.616.234-5.916.035-.38-3.091-2.121-3.868-2.61C18.453 142.621 3.475 115.47 3.475 85.835 3.475 38.506 41.98 0 89.31 0c21.97 0 42.562 8.288 58.139 22.644C164.219 8.006 185.487 0 207.92 0 258.695 0 300 41.306 300 92.079zm-9.364 0c0-45.61-37.105-82.715-82.715-82.715-19.98 0-38.93 7.069-53.933 20.003a86.475 86.475 0 0 1 11.487 16.849 4.682 4.682 0 0 1-8.304 4.328c-2.973-5.706-6.75-10.788-10.746-15.583-2.374-2.851-4.907-5.036-5.232-5.336-13.89-12.842-32.268-20.261-51.882-20.261-42.168 0-76.472 34.305-76.472 76.472 0 26.402 13.346 50.593 35.7 64.709.15.094.29.196.425.303a72.934 72.934 0 0 1 10.075-23.872 4.683 4.683 0 0 1 7.844 5.115c-6.77 10.38-10.346 22.448-10.346 34.899 0 35.283 28.704 63.987 63.987 63.987 30.176 0 56.116-21.009 62.497-50.252a91.535 91.535 0 0 1-21.144-8.889c-.088-.05-5.146-2.26-5.146-4.846a4.682 4.682 0 0 1 4.682-4.682h.624c.982 0 3.932 1.077 4.529 1.422 12.51 7.238 26.812 11.063 41.354 11.063 45.61.001 82.716-37.105 82.716-82.714zm-207.255 18.58a21.907 21.907 0 0 1-15.285 6.186c-5.628 0-11.255-2.142-15.54-6.426-8.485-8.486-8.561-22.238-.24-30.825-8.321-8.588-8.245-22.34.24-30.825 8.486-8.485 22.238-8.561 30.825-.24 8.588-8.321 22.338-8.245 30.824.24 8.486 8.486 8.562 22.238.24 30.825 8.322 8.587 8.246 22.339-.24 30.825-4.285 4.283-9.912 6.426-15.54 6.426a21.905 21.905 0 0 1-15.284-6.186zm24.444-24.432l-17.81 17.81c4.936 4.663 12.737 4.591 17.57-.241 4.83-4.83 4.902-12.633.24-17.569zM90.015 55.15l17.808 17.81c4.664-4.935 4.592-12.738-.24-17.569-4.83-4.83-12.633-4.903-17.569-.241zm-6.634 6.61L65.546 79.592 83.38 97.428l17.835-17.835L83.38 61.758zm-24.444 11.2L76.746 55.15a12.57 12.57 0 0 0-8.651-3.447 12.57 12.57 0 0 0-8.918 3.688c-4.83 4.83-4.903 12.633-.24 17.569zm17.81 31.079l-17.81-17.81c-4.663 4.936-4.59 12.738.241 17.57 4.83 4.83 12.633 4.902 17.569.24z" fill="#000" fill-rule="nonzero"/></g></svg>