<svg preserveAspectRatio="none" width="300" height="300" viewBox="0 0 302 302" xmlns="http://www.w3.org/2000/svg"><g fill="none" fill-rule="evenodd"><path d="M295.12.164H4.695C2.102.164 0 2.301 0 4.936v290.128c0 2.635 2.102 4.772 4.695 4.772H295.12c2.593 0 4.695-2.136 4.695-4.772V4.935c-.001-2.634-2.102-4.77-4.696-4.77zm-4.694 290.128H9.39V70.788h281.037v219.504zm0-229.049H9.39V9.708h281.037v51.535z" fill="#000" fill-rule="nonzero"/><path d="M154.915 15.434c-10.872 0-19.717 8.991-19.717 20.042 0 11.05 8.846 20.041 19.717 20.041 10.871 0 19.716-8.99 19.716-20.041 0-11.052-8.844-20.042-19.716-20.042zm0 30.54c-5.695 0-10.328-4.71-10.328-10.498 0-5.79 4.633-10.499 10.328-10.499 5.694 0 10.328 4.71 10.328 10.499 0 5.788-4.634 10.498-10.328 10.498zM99.834 15.434c-10.872 0-19.716 8.991-19.716 20.042 0 11.05 8.845 20.041 19.716 20.041 10.872 0 19.717-8.99 19.717-20.041 0-11.052-8.845-20.042-19.717-20.042zm0 30.54c-5.694 0-10.328-4.71-10.328-10.498 0-5.79 4.634-10.499 10.328-10.499 5.695 0 10.328 4.71 10.328 10.499 0 5.788-4.634 10.498-10.328 10.498zM44.753 15.434c-10.872 0-19.716 8.991-19.716 20.042 0 11.05 8.845 20.041 19.716 20.041s19.717-8.99 19.717-20.041c0-11.052-8.845-20.042-19.717-20.042zm0 30.54c-5.694 0-10.328-4.71-10.328-10.498 0-5.79 4.634-10.499 10.328-10.499 5.695 0 10.328 4.71 10.328 10.499 0 5.788-4.633 10.498-10.328 10.498zM98.89 135.752c.102-3.823-1.266-7.457-3.854-10.233-2.588-2.776-6.083-4.361-9.843-4.465-3.75-.104-7.335 1.288-10.067 3.918l-47.57 45.81c-2.849 2.744-4.45 6.605-4.395 10.595.055 3.99 1.765 7.805 4.69 10.465l47.571 43.266a13.931 13.931 0 0 0 9.386 3.646h.002c4.003 0 7.83-1.738 10.498-4.77 5.178-5.883 4.683-14.95-1.105-20.214l-36.17-32.897 36.466-35.116c2.73-2.63 4.29-6.183 4.391-10.005zm-10.85 3.077l-40.167 38.68a4.81 4.81 0 0 0-1.465 3.533 4.807 4.807 0 0 0 1.564 3.488l39.97 36.353c1.929 1.754 2.094 4.777.369 6.738a4.608 4.608 0 0 1-3.503 1.59 4.638 4.638 0 0 1-3.127-1.216l-47.57-43.265a4.826 4.826 0 0 1-.099-7.02l47.57-45.809a4.621 4.621 0 0 1 3.356-1.306 4.63 4.63 0 0 1 3.28 1.488 4.782 4.782 0 0 1 1.286 3.41 4.768 4.768 0 0 1-1.464 3.336zM272.259 170.782l-47.57-45.81a13.94 13.94 0 0 0-19.91.548c-5.34 5.73-5.099 14.809.538 20.237l36.466 35.116-36.17 32.897c-5.787 5.264-6.283 14.331-1.105 20.215 2.669 3.031 6.495 4.77 10.497 4.77h.002c3.467 0 6.801-1.295 9.386-3.647l47.57-43.265c2.926-2.661 4.636-6.476 4.69-10.466.057-3.99-1.545-7.851-4.394-10.595zm-6.556 13.949l-47.57 43.265a4.64 4.64 0 0 1-3.126 1.216h-.001a4.609 4.609 0 0 1-3.501-1.59c-1.726-1.96-1.561-4.984.368-6.739l39.97-36.353a4.8 4.8 0 0 0 1.563-3.488 4.812 4.812 0 0 0-1.465-3.532l-40.167-38.68c-1.88-1.81-1.96-4.837-.18-6.747a4.646 4.646 0 0 1 6.636-.182l47.57 45.81a4.821 4.821 0 0 1 1.465 3.531v.001a4.81 4.81 0 0 1-1.562 3.488zM186.04 136.734c-.979-3.693-3.313-6.777-6.572-8.685-6.732-3.937-15.358-1.576-19.232 5.263l-47.57 83.985c-3.875 6.84-1.552 15.61 5.178 19.55a13.918 13.918 0 0 0 7.017 1.91c5.027 0 9.707-2.75 12.214-7.174l47.57-83.984a14.43 14.43 0 0 0 1.394-10.865zm-9.532 6.102L128.94 226.82a4.702 4.702 0 0 1-4.077 2.393c-.825 0-1.61-.215-2.334-.638-2.243-1.313-3.017-4.236-1.726-6.517l47.57-83.984a4.683 4.683 0 0 1 4.077-2.39c.794 0 1.598.205 2.334.636a4.727 4.727 0 0 1 2.19 2.894 4.807 4.807 0 0 1-.465 3.622z" fill="#000" fill-rule="nonzero"/><path d="M295.12.164H4.695C2.102.164 0 2.301 0 4.936v290.128c0 2.635 2.102 4.772 4.695 4.772H295.12c2.593 0 4.695-2.136 4.695-4.772V4.935c-.001-2.634-2.102-4.77-4.696-4.77z" fill="#000"/><path fill="#FCFCFC" d="M290.426 290.292H9.39V70.788h281.037v219.504z"/><path stroke="#402125" fill="#402125" d="M290.426 61.243H9.39V9.708h281.037v51.535z"/><path d="M154.915 15.434c-10.872 0-19.717 8.991-19.717 20.042 0 11.05 8.846 20.041 19.717 20.041 10.871 0 19.716-8.99 19.716-20.041 0-11.052-8.844-20.042-19.716-20.042z" stroke="#000" fill="#000"/><path d="M154.915 45.974c-5.695 0-10.328-4.71-10.328-10.498 0-5.79 4.633-10.499 10.328-10.499 5.694 0 10.328 4.71 10.328 10.499 0 5.788-4.634 10.498-10.328 10.498z" stroke="#75BD59" fill="#75BD59"/><path d="M99.834 15.434c-10.872 0-19.716 8.991-19.716 20.042 0 11.05 8.845 20.041 19.716 20.041 10.872 0 19.717-8.99 19.717-20.041 0-11.052-8.845-20.042-19.717-20.042z" stroke="#000" fill="#000"/><path d="M99.834 45.974c-5.694 0-10.328-4.71-10.328-10.498 0-5.79 4.634-10.499 10.328-10.499 5.695 0 10.328 4.71 10.328 10.499 0 5.788-4.634 10.498-10.328 10.498z" stroke="#F7B239" fill="#F7B239"/><path d="M44.753 15.434c-10.872 0-19.716 8.991-19.716 20.042 0 11.05 8.845 20.041 19.716 20.041s19.717-8.99 19.717-20.041c0-11.052-8.845-20.042-19.717-20.042z" stroke="#000" fill="#000"/><path d="M44.753 45.974c-5.694 0-10.328-4.71-10.328-10.498 0-5.79 4.634-10.499 10.328-10.499 5.695 0 10.328 4.71 10.328 10.499 0 5.788-4.633 10.498-10.328 10.498z" stroke="#CF4D6F" fill="#CF4D6F"/><path d="M98.89 135.752c.102-3.823-1.266-7.457-3.854-10.233-2.588-2.776-6.083-4.361-9.843-4.465-3.75-.104-7.335 1.288-10.067 3.918l-47.57 45.81c-2.849 2.744-4.45 6.605-4.395 10.595.055 3.99 1.765 7.805 4.69 10.465l47.571 43.266a13.931 13.931 0 0 0 9.386 3.646h.002c4.003 0 7.83-1.738 10.498-4.77 5.178-5.883 4.683-14.95-1.105-20.214l-36.17-32.897 36.466-35.116c2.73-2.63 4.29-6.183 4.391-10.005z" fill="#000"/><path d="M88.04 138.829l-40.167 38.68a4.81 4.81 0 0 0-1.465 3.533 4.807 4.807 0 0 0 1.564 3.488l39.97 36.353c1.929 1.754 2.094 4.777.369 6.738a4.608 4.608 0 0 1-3.503 1.59 4.638 4.638 0 0 1-3.127-1.216l-47.57-43.265a4.826 4.826 0 0 1-.099-7.02l47.57-45.809a4.621 4.621 0 0 1 3.356-1.306 4.63 4.63 0 0 1 3.28 1.488 4.782 4.782 0 0 1 1.286 3.41 4.768 4.768 0 0 1-1.464 3.336z" stroke="#D9554C" fill="#D9554C"/><path d="M272.258 170.782l-47.57-45.81a13.94 13.94 0 0 0-19.91.548c-5.34 5.73-5.098 14.809.538 20.237l36.467 35.116-36.17 32.897c-5.788 5.264-6.284 14.331-1.106 20.215 2.67 3.031 6.495 4.77 10.498 4.77h.002c3.467 0 6.8-1.295 9.386-3.647l47.57-43.265c2.926-2.661 4.636-6.476 4.69-10.466.056-3.99-1.546-7.851-4.395-10.595z" fill="#000"/><path d="M265.703 184.731l-47.57 43.265a4.64 4.64 0 0 1-3.126 1.216h-.001a4.609 4.609 0 0 1-3.501-1.59c-1.726-1.96-1.561-4.984.368-6.739l39.97-36.353a4.8 4.8 0 0 0 1.563-3.488 4.812 4.812 0 0 0-1.465-3.532l-40.167-38.68c-1.88-1.81-1.96-4.837-.18-6.747a4.646 4.646 0 0 1 6.636-.182l47.57 45.81a4.821 4.821 0 0 1 1.465 3.531v.001a4.81 4.81 0 0 1-1.562 3.488z" stroke="#D9554C" fill="#D9554C"/><path d="M186.04 136.734c-.979-3.693-3.313-6.777-6.572-8.685-6.732-3.937-15.358-1.576-19.232 5.263l-47.57 83.985c-3.875 6.84-1.552 15.61 5.178 19.55a13.918 13.918 0 0 0 7.017 1.91c5.027 0 9.707-2.75 12.214-7.174l47.57-83.984a14.43 14.43 0 0 0 1.394-10.865z" fill="#000"/><path d="M176.508 142.836L128.94 226.82a4.702 4.702 0 0 1-4.077 2.393c-.825 0-1.61-.215-2.334-.638-2.243-1.313-3.017-4.236-1.726-6.517l47.57-83.984a4.683 4.683 0 0 1 4.077-2.39c.794 0 1.598.205 2.334.636a4.727 4.727 0 0 1 2.19 2.894 4.807 4.807 0 0 1-.465 3.622z" stroke="#D9554C" fill="#D9554C"/></g></svg>