<svg preserveAspectRatio="none" width="300" height="300" viewBox="0 0 302 302" xmlns="http://www.w3.org/2000/svg"><g fill="none" fill-rule="evenodd"><path d="M300.008 167.355l.078-.062.201-2.13c.091-.976.136-1.946.206-2.924a153.11 153.11 0 0 0 .402-8.39 152.883 152.883 0 0 0-.022-7.064 150.516 150.516 0 0 0-.316-6.554c-.01-.175-.026-.348-.037-.524-.166-2.249-.383-4.49-.651-6.721-.015-.141-.03-.282-.053-.423a149.753 149.753 0 0 0-.981-6.73l-.075-.45a152.57 152.57 0 0 0-1.287-6.584l-.134-.607c-.47-2.117-.99-4.216-1.555-6.31-.08-.287-.152-.573-.232-.86a154.21 154.21 0 0 0-1.772-5.923c-.024-.07-.04-.14-.064-.21-.02-.074-.046-.148-.066-.222-.08-.255-.17-.508-.255-.76a151.04 151.04 0 0 0-1.932-5.472c-.192-.51-.376-1.027-.575-1.539a141.308 141.308 0 0 0-2.058-5.016c-.265-.62-.521-1.245-.797-1.861a148.128 148.128 0 0 0-2.16-4.598c-.344-.704-.676-1.416-1.03-2.117a151.949 151.949 0 0 0-2.267-4.255c-.418-.765-.817-1.532-1.254-2.29-.778-1.36-1.6-2.704-2.424-4.04-.474-.773-.926-1.55-1.412-2.313-.9-1.41-1.85-2.795-2.798-4.179-.459-.663-.888-1.338-1.354-1.995a131.951 131.951 0 0 0-4.455-5.993 148.764 148.764 0 0 0-4.775-5.761c-.53-.608-1.084-1.183-1.621-1.785-1.123-1.248-2.245-2.496-3.404-3.703-.63-.655-1.28-1.277-1.915-1.916-1.113-1.115-2.22-2.23-3.359-3.306-.637-.6-1.288-1.168-1.93-1.757a151.949 151.949 0 0 0-3.602-3.204c-.598-.509-1.213-.999-1.816-1.498a151.058 151.058 0 0 0-3.96-3.182c-.535-.413-1.083-.809-1.622-1.212a147.116 147.116 0 0 0-4.392-3.18c-.45-.313-.903-.613-1.361-.92-1.6-1.088-3.22-2.143-4.864-3.165l-.679-.426c-.07-.04-.133-.08-.2-.117-.063-.04-.126-.072-.19-.111a157.715 157.715 0 0 0-5.339-3.115c-.26-.145-.522-.283-.782-.428a146 146 0 0 0-5.767-2.995c-.185-.09-.374-.184-.559-.273a152.57 152.57 0 0 0-6.096-2.8c-.143-.06-.281-.122-.42-.178a153.468 153.468 0 0 0-6.709-2.687 147.965 147.965 0 0 0-6.38-2.213c-.168-.053-.332-.108-.5-.16-2.08-.66-4.181-1.278-6.296-1.847-.252-.07-.508-.135-.76-.205a151.403 151.403 0 0 0-6.1-1.478c-.35-.081-.701-.155-1.052-.23a159.765 159.765 0 0 0-5.9-1.133l-1.298-.22c-.967-.136-1.923-.325-2.893-.465l-2.117-.306-.079.062c-38.56-4.962-79.007 4.91-111.903 30.796C-6.76 84.27-18.027 178.763 33.12 243.761c51.149 64.998 145.642 76.266 210.64 25.118 32.896-25.887 52.002-62.878 56.247-101.524z" stroke="#979797" fill="#D8D8D8"/><path stroke="#979797" fill="#D8D8D8" d="M64.674 218.868l-.013.048-.05-.062z"/><path d="M84.73 150.023c15.633 1.417 29.928 9.127 39.707 21.555 9.78 12.427 13.912 28.134 11.613 43.662l-66.513-.46 15.192-64.757z" stroke="#402125" fill="#402125"/><text font-family="Helvetica" font-size="12" fill="#000" transform="rotate(51.8 149.47 151.53)"><tspan x="161.4" y="144.8">402</tspan> <tspan x="161.4" y="158.8">125</tspan></text><path d="M144.701 214.752c2.177-17.212-2.51-34.52-13.347-48.292-10.838-13.772-26.558-22.397-43.8-24.329l17.12-72.987 53.598 12.509-.466 57.718-.375.308.358 1.652.102 3.355.771.374.215.887 3.083.716 1.708.731.318-.25 56.123 13.097-.442 55.033-74.966-.522z" stroke="#FCFCFC" fill="#FCFCFC"/><path d="M174.21 13a.196.196 0 0 1 .062.015 140.627 140.627 0 0 1 32.154 9.449c.061.028.126.054.186.082 1.968.851 3.919 1.746 5.854 2.685l.501.249c1.742.856 3.469 1.756 5.184 2.69l-56.055 44.111-49.88-11.648 60.754-47.81c.413.064.831.11 1.24.177zM231.014 36.124c1.325.923 2.635 1.877 3.936 2.851.553.411 1.109.827 1.653 1.251 1.2.926 2.378 1.882 3.548 2.851.603.5 1.213.993 1.81 1.509 1.095.939 2.17 1.907 3.242 2.882.627.57 1.26 1.133 1.878 1.716 1.04.982 2.058 2.001 3.07 3.019.604.606 1.217 1.199 1.809 1.814 1.06 1.106 2.092 2.254 3.123 3.403.506.562 1.022 1.104 1.523 1.677.413.476.808.986 1.224 1.474l-89.961 70.792.41-51.223 59.05-46.467c.75.484 1.506.959 2.247 1.464.477.324.958.652 1.438.987zM267.258 72.459a139.43 139.43 0 0 1 2.505 3.88c.446.728.869 1.474 1.3 2.208.733 1.239 1.46 2.477 2.147 3.73.409.745.794 1.501 1.187 2.25.674 1.285 1.34 2.568 1.973 3.865.342.707.669 1.419 1.003 2.132.643 1.376 1.27 2.765 1.865 4.152.27.637.528 1.275.794 1.915a143.364 143.364 0 0 1 1.767 4.528c.2.544.396 1.092.593 1.64.297.847.566 1.698.85 2.543l-59.851 45.43-49.673-12.514 91.183-69.212c.37.522.765 1.033 1.12 1.56.43.622.823 1.265 1.237 1.893zM287.699 120.835c.458 2.102.872 4.206 1.233 6.32.013.067.023.135.036.201a140.627 140.627 0 0 1 1.624 33.474c-.003.021-.001.04 0 .064-.035.41-.089.827-.124 1.243l-60.755 47.809.408-51.22 56.055-44.112c.505 1.887.974 3.777 1.399 5.675.038.187.084.367.124.546z" stroke="#F7B239" fill="#F7B239"/><path d="M40.98 237.577C-6.758 176.913 3.759 88.718 64.423 40.98c27.83-21.9 61.449-31.508 94.3-29.67l-58.691 46.186-3.552 2.795-36.63 156.15-.774.642.003.004-.043.034.4 1.72.001 3.156.098.05.002.043.77.373.206.844.048.013.025.095 2.971.64.726.307.991.46.04-.031.742-.585 160.29 1.115 3.552-2.795 58.691-46.186c-5.938 32.363-23.18 62.779-51.012 84.68-60.664 47.738-148.859 37.221-196.597-23.443z" stroke="#D9554C" fill="#D9554C"/><path d="M300.008 167.355l.078-.062.201-2.13c.091-.976.136-1.946.206-2.924a153.11 153.11 0 0 0 .402-8.39 152.883 152.883 0 0 0-.022-7.064 150.516 150.516 0 0 0-.316-6.554c-.01-.175-.026-.348-.037-.524-.166-2.249-.383-4.49-.651-6.721-.015-.141-.03-.282-.053-.423a149.753 149.753 0 0 0-.981-6.73l-.075-.45a152.57 152.57 0 0 0-1.287-6.584l-.134-.607c-.47-2.117-.99-4.216-1.555-6.31-.08-.287-.152-.573-.232-.86a154.21 154.21 0 0 0-1.772-5.923c-.024-.07-.04-.14-.064-.21-.02-.074-.046-.148-.066-.222-.08-.255-.17-.508-.255-.76a151.04 151.04 0 0 0-1.932-5.472c-.192-.51-.376-1.027-.575-1.539a141.308 141.308 0 0 0-2.058-5.016c-.265-.62-.521-1.245-.797-1.861a148.128 148.128 0 0 0-2.16-4.598c-.344-.704-.676-1.416-1.03-2.117a151.949 151.949 0 0 0-2.267-4.255c-.418-.765-.817-1.532-1.254-2.29-.778-1.36-1.6-2.704-2.424-4.04-.474-.773-.926-1.55-1.412-2.313-.9-1.41-1.85-2.795-2.798-4.179-.459-.663-.888-1.338-1.354-1.995a131.951 131.951 0 0 0-4.455-5.993 148.764 148.764 0 0 0-4.775-5.761c-.53-.608-1.084-1.183-1.621-1.785-1.123-1.248-2.245-2.496-3.404-3.703-.63-.655-1.28-1.277-1.915-1.916-1.113-1.115-2.22-2.23-3.359-3.306-.637-.6-1.288-1.168-1.93-1.757a151.949 151.949 0 0 0-3.602-3.204c-.598-.509-1.213-.999-1.816-1.498a151.058 151.058 0 0 0-3.96-3.182c-.535-.413-1.083-.809-1.622-1.212a147.116 147.116 0 0 0-4.392-3.18c-.45-.313-.903-.613-1.361-.92-1.6-1.088-3.22-2.143-4.864-3.165l-.679-.426c-.07-.04-.133-.08-.2-.117-.063-.04-.126-.072-.19-.111a157.715 157.715 0 0 0-5.339-3.115c-.26-.145-.522-.283-.782-.428a146 146 0 0 0-5.767-2.995c-.185-.09-.374-.184-.559-.273a152.57 152.57 0 0 0-6.096-2.8c-.143-.06-.281-.122-.42-.178a153.468 153.468 0 0 0-6.709-2.687 147.965 147.965 0 0 0-6.38-2.213c-.168-.053-.332-.108-.5-.16-2.08-.66-4.181-1.278-6.296-1.847-.252-.07-.508-.135-.76-.205a151.403 151.403 0 0 0-6.1-1.478c-.35-.081-.701-.155-1.052-.23a159.765 159.765 0 0 0-5.9-1.133l-1.298-.22c-.967-.136-1.923-.325-2.893-.465l-2.117-.306-.079.062c-38.56-4.962-79.007 4.91-111.903 30.796C-6.76 84.27-18.027 178.763 33.12 243.761c51.149 64.998 145.642 76.266 210.64 25.118 32.896-25.887 52.002-62.878 56.247-101.524zM64.674 218.868l-.013.048-.05-.062.063.014zm20.591-66.976c15.052 1.364 28.815 8.788 38.23 20.752 9.415 11.965 13.394 27.088 11.18 42.038l-64.037-.444 14.627-62.346zm59.436 62.86c2.177-17.212-2.51-34.52-13.347-48.292-10.838-13.772-26.558-22.397-43.8-24.329l17.12-72.987 53.598 12.509-.466 57.718-.375.308.358 1.652.102 3.355.771.374.215.887 3.083.716 1.708.731.318-.25 56.123 13.097-.442 55.033-74.966-.522zM174.21 13a.196.196 0 0 1 .062.015 140.627 140.627 0 0 1 32.154 9.449c.061.028.126.054.186.082 1.968.851 3.919 1.746 5.854 2.685l.501.249c1.742.856 3.469 1.756 5.184 2.69l-56.055 44.111-49.88-11.648 60.754-47.81c.413.064.831.11 1.24.177zm56.804 23.124c1.325.923 2.635 1.877 3.936 2.851.553.411 1.109.827 1.653 1.251 1.2.926 2.378 1.882 3.548 2.851.603.5 1.213.993 1.81 1.509 1.095.939 2.17 1.907 3.242 2.882.627.57 1.26 1.133 1.878 1.716 1.04.982 2.058 2.001 3.07 3.019.604.606 1.217 1.199 1.809 1.814 1.06 1.106 2.092 2.254 3.123 3.403.506.562 1.022 1.104 1.523 1.677.413.476.808.986 1.224 1.474l-89.961 70.792.41-51.223 59.05-46.467c.75.484 1.506.959 2.247 1.464.477.324.958.652 1.438.987zm36.244 36.335a139.43 139.43 0 0 1 2.505 3.88c.446.728.869 1.474 1.3 2.208.733 1.239 1.46 2.477 2.147 3.73.409.745.794 1.501 1.187 2.25.674 1.285 1.34 2.568 1.973 3.865.342.707.669 1.419 1.003 2.132.643 1.376 1.27 2.765 1.865 4.152.27.637.528 1.275.794 1.915a143.364 143.364 0 0 1 1.767 4.528c.2.544.396 1.092.593 1.64.297.847.566 1.698.85 2.543l-59.851 45.43-49.673-12.514 91.183-69.212c.37.522.765 1.033 1.12 1.56.43.622.823 1.265 1.237 1.893zm20.44 48.376c.459 2.102.873 4.206 1.234 6.32.013.067.023.135.036.201a140.627 140.627 0 0 1 1.624 33.474c-.003.021-.001.04 0 .064-.035.41-.089.827-.124 1.243l-60.755 47.809.408-51.22 56.055-44.112c.505 1.887.974 3.777 1.399 5.675.038.187.084.367.124.546zM40.98 237.577C-6.758 176.913 3.759 88.718 64.423 40.98c27.83-21.9 61.449-31.508 94.3-29.67l-58.691 46.186-3.552 2.795-36.63 156.15-.774.642.003.004-.043.034.4 1.72.001 3.156.098.05.002.043.77.373.206.844.048.013.025.095 2.971.64.726.307.991.46.04-.031.742-.585 160.29 1.115 3.552-2.795 58.691-46.186c-5.938 32.363-23.18 62.779-51.012 84.68-60.664 47.738-148.859 37.221-196.597-23.443z" fill="#000" fill-rule="nonzero"/></g></svg>