<?xml version="1.0" encoding="UTF-8"?>
<svg  preserveAspectRatio="none" width="300px" height="300px" viewBox="0 0 302 302" version="1.1" xmlns="http://www.w3.org/2000/svg" xmlns:xlink="http://www.w3.org/1999/xlink">
    <defs></defs>
    <g id="Page-1" stroke="none" stroke-width="1" fill="none" fill-rule="evenodd">
        <g id="compose" transform="translate(151.000000, 151.000000) rotate(51.800000) translate(-151.000000, -151.000000) translate(1.000000, 1.000000)">
            <path d="M255,43.015 L255,42.915 L253.45,41.44 C252.74,40.765 252.005,40.13 251.28,39.47 C250.955,39.17 250.63,38.875 250.305,38.585 C248.815,37.24 247.3,35.93 245.765,34.65 C245.49,34.42 245.21,34.19 244.935,33.965 C243.315,32.635 241.67,31.345 240,30.085 C239.79,29.925 239.58,29.77 239.37,29.615 C237.61,28.305 235.83,27.035 234.025,25.81 C233.88,25.71 233.735,25.615 233.59,25.515 C231.72,24.255 229.825,23.04 227.905,21.87 C227.785,21.795 227.665,21.72 227.54,21.65 C225.6,20.475 223.635,19.345 221.645,18.26 C221.51,18.185 221.38,18.115 221.245,18.04 C219.275,16.975 217.285,15.955 215.275,14.98 C215.09,14.89 214.9,14.8 214.715,14.71 C212.76,13.77 210.79,12.88 208.795,12.03 C208.52,11.915 208.25,11.795 207.975,11.68 C206.075,10.885 204.16,10.13 202.225,9.41 C202.155,9.385 202.09,9.355 202.02,9.33 C201.95,9.3 201.875,9.275 201.805,9.245 C201.555,9.15 201.3,9.065 201.05,8.975 C199.23,8.315 197.4,7.7 195.555,7.11 C195.035,6.945 194.515,6.77 193.99,6.61 C192.265,6.08 190.525,5.59 188.775,5.125 C188.125,4.95 187.475,4.765 186.82,4.6 C185.18,4.185 183.53,3.815 181.87,3.455 C181.105,3.29 180.34,3.11 179.57,2.955 C177.995,2.64 176.41,2.37 174.825,2.105 C173.965,1.96 173.115,1.8 172.25,1.675 C170.7,1.445 169.135,1.26 167.575,1.08 C166.675,0.975 165.785,0.85 164.885,0.76 C163.22,0.595 161.545,0.485 159.87,0.375 C159.065,0.325 158.27,0.245 157.465,0.205 C154.995,0.065 152.505,0 150,0 C147.495,0 145.005,0.065 142.52,0.19 C141.715,0.23 140.92,0.31 140.115,0.36 C138.44,0.47 136.765,0.58 135.1,0.745 C134.195,0.835 133.305,0.96 132.41,1.065 C130.845,1.25 129.285,1.43 127.735,1.66 C126.87,1.79 126.02,1.95 125.16,2.09 C123.575,2.355 121.99,2.625 120.415,2.94 C119.645,3.095 118.88,3.275 118.115,3.44 C116.46,3.8 114.805,4.17 113.165,4.585 C112.51,4.75 111.86,4.935 111.21,5.11 C109.465,5.575 107.725,6.065 105.995,6.595 C105.47,6.755 104.955,6.925 104.43,7.095 C102.585,7.68 100.755,8.3 98.935,8.96 C98.685,9.05 98.43,9.14 98.18,9.23 C98.105,9.26 98.035,9.285 97.965,9.315 C97.895,9.34 97.83,9.37 97.76,9.395 C95.83,10.115 93.91,10.87 92.01,11.665 C91.735,11.78 91.465,11.9 91.19,12.015 C89.2,12.865 87.225,13.755 85.27,14.695 C85.085,14.785 84.895,14.875 84.71,14.965 C82.7,15.94 80.71,16.96 78.74,18.025 C78.605,18.1 78.47,18.17 78.34,18.245 C76.35,19.33 74.39,20.46 72.445,21.635 C72.325,21.71 72.205,21.785 72.08,21.855 C70.16,23.025 68.265,24.24 66.395,25.5 C66.25,25.6 66.105,25.695 65.96,25.795 C64.155,27.02 62.37,28.29 60.615,29.6 C60.405,29.755 60.195,29.915 59.985,30.07 C58.315,31.325 56.675,32.62 55.05,33.95 C54.77,34.175 54.495,34.405 54.22,34.635 C52.685,35.915 51.175,37.225 49.68,38.57 C49.355,38.865 49.03,39.16 48.705,39.455 C48,40.13 47.26,40.765 46.55,41.44 L45,42.915 L45,43.015 C17.255,70.25 0,108.14 0,150 C0,232.71 67.29,300 150,300 C232.71,300 300,232.71 300,150 C300,108.14 282.745,70.25 255,43.015 Z" id="Path" stroke="#979797" fill="#D8D8D8"></path>
            <polygon id="Path" stroke="#979797" fill="#D8D8D8" points="149.95 259.81 149.98 259.85 149.9 259.85"></polygon>
            <path d="M108.25,201.475269 C119.031249,190.065633 133.930769,183.6 149.744306,183.6 C165.557843,183.6 180.457362,190.065633 191.238611,201.475269 L149.744306,253.46 L108.25,201.475269 Z" id="Path" stroke="#402125" fill="#402125"></path>
            <text id="402125" font-family="Helvetica" font-size="12" font-weight="normal" fill="#000000">
                <tspan x="161.4" y="144.8">402</tspan>
                <tspan x="161.4" y="158.8">125</tspan>
            </text>
            <path d="M196.205,194.375 C184.025,182.02 167.525,175 150,175 C132.475,175 115.975,182.02 103.795,194.375 L57.025,135.785 L100,101.4 L145.07,137.46 L145.08,137.945 L146.6,138.685 L149.3,140.68 L150.07,140.305 L150.9,140.685 L153.37,138.705 L155,137.815 L155,137.41 L200,101.405 L242.975,135.785 L196.205,194.375 Z" id="Path" stroke="#FCFCFC" fill="#FCFCFC"></path>
            <path d="M55.905,46.42 C55.92,46.405 55.935,46.39 55.955,46.38 C64.22,38.87 73.385,32.335 83.265,26.955 C83.325,26.925 83.385,26.89 83.445,26.86 C85.33,25.84 87.24,24.86 89.175,23.92 C89.345,23.84 89.51,23.76 89.68,23.68 C91.43,22.84 93.205,22.04 95,21.27 L95,92.6 L55,124.595 L55,47.285 C55.305,47 55.6,46.7 55.905,46.42 Z" id="Path" stroke="#F7B239" fill="#F7B239"></path>
            <path d="M109.205,16.08 C110.75,15.61 112.31,15.17 113.88,14.75 C114.545,14.57 115.215,14.39 115.885,14.225 C117.355,13.855 118.835,13.52 120.32,13.2 C121.085,13.035 121.85,12.86 122.625,12.71 C124.04,12.43 125.465,12.185 126.895,11.945 C127.73,11.805 128.565,11.655 129.405,11.53 C130.82,11.32 132.25,11.15 133.675,10.985 C134.525,10.885 135.37,10.77 136.22,10.685 C137.745,10.535 139.285,10.435 140.825,10.335 C141.58,10.285 142.325,10.215 143.085,10.175 C143.715,10.145 144.36,10.15 145,10.125 L145,124.6 L105,92.6 L105,17.46 C105.845,17.17 106.685,16.87 107.54,16.6 C108.09,16.425 108.645,16.25 109.205,16.08 Z" id="Path" stroke="#F7B239" fill="#F7B239"></path>
            <path d="M160.172677,10.0675012 C161.710698,10.1943627 163.248718,10.3212242 164.770868,10.4978163 C165.619255,10.5976379 166.467118,10.7274549 167.310244,10.8421869 C168.737147,11.0321188 170.158963,11.2269625 171.570082,11.4616257 C172.407773,11.6012667 173.240028,11.7658166 174.072457,11.920368 C175.498051,12.1852884 176.918558,12.4551208 178.328456,12.7597733 C179.095634,12.9281881 179.85755,13.1115133 180.624553,13.2899265 C182.103742,13.6357946 183.582582,14.0016596 185.040989,14.3921718 C185.70792,14.573839 186.369677,14.7654174 187.036521,14.9520839 C188.598952,15.3994202 190.151035,15.8665789 191.687597,16.3634713 C192.239546,16.5431315 192.791407,16.727791 193.343269,16.9124504 C194.193339,17.2023303 195.027975,17.5169446 195.867873,17.8166485 L194.556499,92.9452043 L154.004114,124.242234 L156.001978,9.78466942 C156.641532,9.81583591 157.286521,9.82209348 157.920813,9.86817042 C158.675087,9.91634166 159.423664,10.0044195 160.172677,10.0675012 Z" id="Path" stroke="#F7B239" fill="#F7B239"></path>
            <path d="M210.83,23.92 C212.765,24.86 214.675,25.835 216.56,26.86 C216.62,26.89 216.68,26.925 216.74,26.955 C226.62,32.335 235.785,38.87 244.05,46.38 C244.065,46.395 244.08,46.405 244.1,46.42 C244.4,46.7 244.695,47 245,47.285 L245,124.595 L205,92.6 L205,21.27 C206.795,22.04 208.57,22.84 210.325,23.68 C210.495,23.765 210.665,23.84 210.83,23.92 Z" id="Path" stroke="#F7B239" fill="#F7B239"></path>
            <path d="M150,290 C72.805,290 10,227.195 10,150 C10,114.585 23.24,82.225 45,57.545 L45,132.23 L45,136.75 L145.06,262.1 L145.085,263.105 L145.09,263.105 L145.09,263.16 L146.69,263.91 L149.17,265.86 L149.27,265.815 L149.305,265.84 L150.075,265.465 L150.865,265.825 L150.905,265.795 L150.995,265.835 L153.335,263.895 L154.025,263.515 L155,263.02 L155,262.97 L155,262.025 L255,136.75 L255,132.23 L255,57.545 C276.76,82.225 290,114.585 290,150 C290,227.195 227.195,290 150,290 Z" id="Path" stroke="#D9554C" fill="#D9554C"></path>
            <path d="M255,43.015 L255,42.915 L253.45,41.44 C252.74,40.765 252.005,40.13 251.28,39.47 C250.955,39.17 250.63,38.875 250.305,38.585 C248.815,37.24 247.3,35.93 245.765,34.65 C245.49,34.42 245.21,34.19 244.935,33.965 C243.315,32.635 241.67,31.345 240,30.085 C239.79,29.925 239.58,29.77 239.37,29.615 C237.61,28.305 235.83,27.035 234.025,25.81 C233.88,25.71 233.735,25.615 233.59,25.515 C231.72,24.255 229.825,23.04 227.905,21.87 C227.785,21.795 227.665,21.72 227.54,21.65 C225.6,20.475 223.635,19.345 221.645,18.26 C221.51,18.185 221.38,18.115 221.245,18.04 C219.275,16.975 217.285,15.955 215.275,14.98 C215.09,14.89 214.9,14.8 214.715,14.71 C212.76,13.77 210.79,12.88 208.795,12.03 C208.52,11.915 208.25,11.795 207.975,11.68 C206.075,10.885 204.16,10.13 202.225,9.41 C202.155,9.385 202.09,9.355 202.02,9.33 C201.95,9.3 201.875,9.275 201.805,9.245 C201.555,9.15 201.3,9.065 201.05,8.975 C199.23,8.315 197.4,7.7 195.555,7.11 C195.035,6.945 194.515,6.77 193.99,6.61 C192.265,6.08 190.525,5.59 188.775,5.125 C188.125,4.95 187.475,4.765 186.82,4.6 C185.18,4.185 183.53,3.815 181.87,3.455 C181.105,3.29 180.34,3.11 179.57,2.955 C177.995,2.64 176.41,2.37 174.825,2.105 C173.965,1.96 173.115,1.8 172.25,1.675 C170.7,1.445 169.135,1.26 167.575,1.08 C166.675,0.975 165.785,0.85 164.885,0.76 C163.22,0.595 161.545,0.485 159.87,0.375 C159.065,0.325 158.27,0.245 157.465,0.205 C154.995,0.065 152.505,0 150,0 C147.495,0 145.005,0.065 142.52,0.19 C141.715,0.23 140.92,0.31 140.115,0.36 C138.44,0.47 136.765,0.58 135.1,0.745 C134.195,0.835 133.305,0.96 132.41,1.065 C130.845,1.25 129.285,1.43 127.735,1.66 C126.87,1.79 126.02,1.95 125.16,2.09 C123.575,2.355 121.99,2.625 120.415,2.94 C119.645,3.095 118.88,3.275 118.115,3.44 C116.46,3.8 114.805,4.17 113.165,4.585 C112.51,4.75 111.86,4.935 111.21,5.11 C109.465,5.575 107.725,6.065 105.995,6.595 C105.47,6.755 104.955,6.925 104.43,7.095 C102.585,7.68 100.755,8.3 98.935,8.96 C98.685,9.05 98.43,9.14 98.18,9.23 C98.105,9.26 98.035,9.285 97.965,9.315 C97.895,9.34 97.83,9.37 97.76,9.395 C95.83,10.115 93.91,10.87 92.01,11.665 C91.735,11.78 91.465,11.9 91.19,12.015 C89.2,12.865 87.225,13.755 85.27,14.695 C85.085,14.785 84.895,14.875 84.71,14.965 C82.7,15.94 80.71,16.96 78.74,18.025 C78.605,18.1 78.47,18.17 78.34,18.245 C76.35,19.33 74.39,20.46 72.445,21.635 C72.325,21.71 72.205,21.785 72.08,21.855 C70.16,23.025 68.265,24.24 66.395,25.5 C66.25,25.6 66.105,25.695 65.96,25.795 C64.155,27.02 62.37,28.29 60.615,29.6 C60.405,29.755 60.195,29.915 59.985,30.07 C58.315,31.325 56.675,32.62 55.05,33.95 C54.77,34.175 54.495,34.405 54.22,34.635 C52.685,35.915 51.175,37.225 49.68,38.57 C49.355,38.865 49.03,39.16 48.705,39.455 C48,40.13 47.26,40.765 46.55,41.44 L45,42.915 L45,43.015 C17.255,70.25 0,108.14 0,150 C0,232.71 67.29,300 150,300 C232.71,300 300,232.71 300,150 C300,108.14 282.745,70.25 255,43.015 Z M149.95,259.81 L149.98,259.85 L149.9,259.85 L149.95,259.81 Z M110.05,202.21 C120.43,191.225 134.775,185 150,185 C165.225,185 179.57,191.225 189.95,202.21 L150,252.26 L110.05,202.21 Z M196.205,194.375 C184.025,182.02 167.525,175 150,175 C132.475,175 115.975,182.02 103.795,194.375 L57.025,135.785 L100,101.4 L145.07,137.46 L145.08,137.945 L146.6,138.685 L149.3,140.68 L150.07,140.305 L150.9,140.685 L153.37,138.705 L155,137.815 L155,137.41 L200,101.405 L242.975,135.785 L196.205,194.375 Z M55.905,46.42 C55.92,46.405 55.935,46.39 55.955,46.38 C64.22,38.87 73.385,32.335 83.265,26.955 C83.325,26.925 83.385,26.89 83.445,26.86 C85.33,25.84 87.24,24.86 89.175,23.92 C89.345,23.84 89.51,23.76 89.68,23.68 C91.43,22.84 93.205,22.04 95,21.27 L95,92.6 L55,124.595 L55,47.285 C55.305,47 55.6,46.7 55.905,46.42 Z M109.205,16.08 C110.75,15.61 112.31,15.17 113.88,14.75 C114.545,14.57 115.215,14.39 115.885,14.225 C117.355,13.855 118.835,13.52 120.32,13.2 C121.085,13.035 121.85,12.86 122.625,12.71 C124.04,12.43 125.465,12.185 126.895,11.945 C127.73,11.805 128.565,11.655 129.405,11.53 C130.82,11.32 132.25,11.15 133.675,10.985 C134.525,10.885 135.37,10.77 136.22,10.685 C137.745,10.535 139.285,10.435 140.825,10.335 C141.58,10.285 142.325,10.215 143.085,10.175 C143.715,10.145 144.36,10.15 145,10.125 L145,124.6 L105,92.6 L105,17.46 C105.845,17.17 106.685,16.87 107.54,16.6 C108.09,16.425 108.645,16.25 109.205,16.08 Z M160.172677,10.0675012 C161.710698,10.1943627 163.248718,10.3212242 164.770868,10.4978163 C165.619255,10.5976379 166.467118,10.7274549 167.310244,10.8421869 C168.737147,11.0321188 170.158963,11.2269625 171.570082,11.4616257 C172.407773,11.6012667 173.240028,11.7658166 174.072457,11.920368 C175.498051,12.1852884 176.918558,12.4551208 178.328456,12.7597733 C179.095634,12.9281881 179.85755,13.1115133 180.624553,13.2899265 C182.103742,13.6357946 183.582582,14.0016596 185.040989,14.3921718 C185.70792,14.573839 186.369677,14.7654174 187.036521,14.9520839 C188.598952,15.3994202 190.151035,15.8665789 191.687597,16.3634713 C192.239546,16.5431315 192.791407,16.727791 193.343269,16.9124504 C194.193339,17.2023303 195.027975,17.5169446 195.867873,17.8166485 L194.556499,92.9452043 L154.004114,124.242234 L156.001978,9.78466942 C156.641532,9.81583591 157.286521,9.82209348 157.920813,9.86817042 C158.675087,9.91634166 159.423664,10.0044195 160.172677,10.0675012 Z M210.83,23.92 C212.765,24.86 214.675,25.835 216.56,26.86 C216.62,26.89 216.68,26.925 216.74,26.955 C226.62,32.335 235.785,38.87 244.05,46.38 C244.065,46.395 244.08,46.405 244.1,46.42 C244.4,46.7 244.695,47 245,47.285 L245,124.595 L205,92.6 L205,21.27 C206.795,22.04 208.57,22.84 210.325,23.68 C210.495,23.765 210.665,23.84 210.83,23.92 Z M150,290 C72.805,290 10,227.195 10,150 C10,114.585 23.24,82.225 45,57.545 L45,132.23 L45,136.75 L145.06,262.1 L145.085,263.105 L145.09,263.105 L145.09,263.16 L146.69,263.91 L149.17,265.86 L149.27,265.815 L149.305,265.84 L150.075,265.465 L150.865,265.825 L150.905,265.795 L150.995,265.835 L153.335,263.895 L154.025,263.515 L155,263.02 L155,262.97 L155,262.025 L255,136.75 L255,132.23 L255,57.545 C276.76,82.225 290,114.585 290,150 C290,227.195 227.195,290 150,290 Z" id="Shape" fill="#000000" fill-rule="nonzero"></path>
        </g>
    </g>
</svg>