<svg width="400" height="143" viewBox="0 0 400 143" fill="none" xmlns="http://www.w3.org/2000/svg">
<path fill-rule="evenodd" clip-rule="evenodd" d="M382.125 36.0187C372.253 36.0187 364.25 27.9556 364.25 18.0093C364.25 8.06305 372.253 0 382.125 0C391.997 0 400 8.06305 400 18.0093C400 27.9556 391.997 36.0187 382.125 36.0187ZM322.663 18.0093H354.4V140.583H322.663V18.0093ZM168.354 97.2136V45.3909H200.091V140.583H168.354V133.967C168.354 133.967 160.328 142.605 140.264 142.605C120.201 142.605 101.596 124.044 101.596 102.359V45.3909H133.516V97.2136C133.516 108.24 142.271 113.937 150.661 113.937C159.052 113.937 168.354 108.24 168.354 97.2136ZM397.811 45.3909H366.074V140.399H397.811V45.3909ZM279.706 45.6572V52.6404C257.089 38.1227 226.993 44.9221 212.583 67.7095C198.174 90.4968 204.923 120.819 227.54 135.336C243.409 145.444 263.655 145.444 279.706 135.336V140.849H311.443V45.6572H279.706ZM281.076 96.4786C281.441 94.6409 281.441 92.6194 281.076 90.7817C279.617 78.2855 268.308 69.4646 255.905 71.1185C245.873 72.4049 237.848 80.4907 236.571 90.598C234.929 102.91 243.684 114.304 255.905 115.958C268.126 117.612 279.435 108.791 281.076 96.4786ZM70.2234 78.8368L97.2184 45.3909H57.2731L31.7373 76.9991V18.1931H0V140.583H31.7373V126.433L49.9772 104.013L72.5946 140.583H108.527L70.2234 78.8368Z" fill="#50B189"/>
</svg>
