<?xml version="1.0" encoding="UTF-8"?>
<svg preserveAspectRatio="none" width="200px" height="15px" viewBox="0 0 200 15" version="1.1" xmlns="http://www.w3.org/2000/svg" xmlns:xlink="http://www.w3.org/1999/xlink">
    <defs></defs>
    <g id="Page-1" stroke="none" stroke-width="1" fill="none" fill-rule="evenodd">
        <g id="Group" fill-rule="nonzero" fill="#220B17">
            <g transform="translate(100.000000, 7.500000) scale(-1, 1) rotate(-180.000000) translate(-100.000000, -7.500000) translate(0.000000, 0.000000)">
                <path d="M132.834201,14.84375 C132.552083,14.7265625 131.72309,14.4921875 131.506076,14.4661458 C131.25,14.4401042 131.076389,14.3532986 130.763889,14.1015625 C130.672743,14.0277778 130.564236,13.9973958 130.286458,13.9756944 C130.086806,13.9626736 129.882812,13.9236111 129.830729,13.8975694 C129.661458,13.8064236 129.257812,13.8368056 128.993056,13.9583333 C128.771701,14.0625 128.706597,14.0711806 128.177083,14.0711806 C127.621528,14.0711806 127.591146,14.0755208 127.365451,14.1970486 C127.065972,14.3576389 126.909722,14.3576389 126.727431,14.2013889 C126.579861,14.0755208 126.180556,13.9149306 125.911458,13.8715278 C125.828993,13.8585069 125.598958,13.8454861 125.403646,13.8411458 C125.177951,13.8368056 124.965278,13.8020833 124.817708,13.75 C124.418403,13.6024306 124.162326,13.5416667 123.927951,13.5416667 C123.654514,13.5416667 123.12934,13.7196181 122.916667,13.8845486 C122.608507,14.1276042 122.5,14.1623264 122.113715,14.1276042 C121.827257,14.1059028 121.727431,14.1145833 121.623264,14.1666667 C121.549479,14.2057292 121.41059,14.2361111 121.310764,14.2361111 C121.215278,14.2361111 121.015625,14.2881944 120.868056,14.3489583 C120.603299,14.4574653 120.590278,14.4618056 120.195312,14.4097222 C119.934896,14.3793403 119.544271,14.3706597 119.105903,14.3880208 C118.302951,14.4227431 118.307292,14.4227431 117.881944,13.9539931 C117.730035,13.7890625 117.565104,13.6284722 117.513021,13.5980903 C117.460938,13.5720486 117.282986,13.5503472 117.100694,13.5590278 C116.705729,13.5677083 116.588542,13.5329861 116.258681,13.3159722 C116.119792,13.2204861 115.842014,13.046875 115.642361,12.9296875 C115.447049,12.8125 115.190972,12.6345486 115.073785,12.5390625 C114.804687,12.3046875 114.435764,11.8315972 114.166667,11.3758681 C114.036458,11.1458333 113.888889,10.9635417 113.780382,10.8854167 C113.619792,10.7682292 113.585069,10.7595486 113.237847,10.7682292 C113.033854,10.7725694 112.738715,10.7942708 112.578125,10.8203125 L112.287326,10.8637153 L112.070312,10.6640625 C111.927083,10.5295139 111.814236,10.4600694 111.740451,10.4600694 C111.679687,10.4600694 111.55816,10.4296875 111.471354,10.3949653 C111.232639,10.2951389 110.976563,10.3125 110.78559,10.4427083 C110.651042,10.5295139 110.590278,10.546875 110.46875,10.5251736 C110.230035,10.4817708 109.578993,10.5859375 109.388021,10.703125 C109.014757,10.9288194 108.810764,11.0199653 108.546007,11.0894097 C108.394097,11.1284722 108.164062,11.2282986 108.038194,11.3151042 C107.760417,11.5060764 106.853299,11.8359375 106.445312,11.9010417 C106.280382,11.9227431 106.015625,11.9661458 105.855035,11.9965278 C105.555556,12.0486111 105.46875,12.0399306 105.065104,11.8923611 C104.796007,11.796875 104.21875,11.7013889 103.927951,11.7057292 C103.780382,11.7057292 103.333333,11.8055556 102.443576,12.03125 C102.304687,12.0703125 102.230903,12.0659722 102.122396,12.0225694 C101.905382,11.9314236 101.072049,11.3628472 100.768229,11.0980903 C100.529514,10.8854167 100.46441,10.8550347 100.173611,10.7942708 C99.9956597,10.7552083 99.7222222,10.7161458 99.5659722,10.6987847 C99.4097222,10.6857639 99.2144097,10.6423611 99.1319444,10.6119792 C99.0494792,10.5772569 98.8237847,10.5078125 98.6328125,10.4600694 C98.4418403,10.4079861 98.1987847,10.3125 98.0902778,10.2430556 C97.9817708,10.1779514 97.8385417,10.1085069 97.7647569,10.0954861 C97.6953125,10.078125 97.5607639,10.0130208 97.4652778,9.94791667 C97.3090278,9.83940972 97.2612847,9.83072917 96.7057292,9.81336806 C95.9852431,9.79600694 95.5685764,9.79600694 95.1345486,9.81336806 C94.7786458,9.83072917 94.8177083,9.84375 94.0104167,9.40972222 C93.8064236,9.30121528 93.5546875,9.19704861 93.4548611,9.1796875 C93.3506944,9.16232639 93.1163194,9.07552083 92.9340278,8.984375 C92.7473958,8.89322917 92.5173611,8.79774306 92.4175347,8.77170139 C92.3177083,8.74565972 92.0572917,8.61545139 91.8359375,8.48524306 C91.6145833,8.35503472 91.3541667,8.22048611 91.2586806,8.18576389 C91.1588542,8.15104167 90.8940972,8.05121528 90.6640625,7.96875 C90.4340278,7.88628472 90.1519097,7.79513889 90.0347222,7.76909722 C89.9175347,7.74305556 89.6961806,7.67361111 89.5399306,7.6171875 C89.3836806,7.56076389 89.1189236,7.47395833 88.9496528,7.42621528 C88.7803819,7.37413194 88.5373264,7.27864583 88.4071181,7.20920139 C88.0251736,7.00954861 87.6085069,6.88802083 87.4001736,6.91840278 C87.3003472,6.93576389 86.7013889,6.94878472 86.0720486,6.95746528 L84.9262153,6.96614583 L84.7222222,7.1484375 C84.1189236,7.68663194 83.5460069,8.02951389 83.2508681,8.02951389 C83.2118056,8.02951389 83.0164931,7.95138889 82.8125,7.86024306 C82.6085069,7.76475694 82.3350694,7.65625 82.2005208,7.62152778 C81.8923611,7.53472222 81.6493056,7.36979167 81.4322917,7.09201389 C81.3368056,6.97048611 81.1935764,6.84461806 81.1154514,6.81423611 C81.0329861,6.77951389 80.8854167,6.69704861 80.7855903,6.62760417 C80.6206597,6.51041667 80.5815972,6.50173611 80.3298611,6.5234375 C80.1779514,6.53645833 79.9001736,6.57118056 79.7048611,6.6015625 L79.3532986,6.65798611 L79.0668403,6.51909722 C78.8368056,6.40625 78.7282986,6.38020833 78.5026042,6.38020833 L78.2248264,6.38020833 L77.9036458,6.66666667 C77.4913194,7.03125 77.1006944,7.265625 76.5972222,7.44357639 C76.3758681,7.52170139 76.0677083,7.63888889 75.9114583,7.70399306 C75.7335069,7.78211806 75.5034722,7.83420139 75.2821181,7.85590278 C74.9479167,7.88628472 74.6961806,7.96006944 74.3229167,8.125 C74.2100694,8.17274306 74.0451389,8.203125 73.8585069,8.203125 C73.4157986,8.203125 73.1380208,8.32899306 72.7690972,8.68923611 C72.4652778,8.98871528 72.3046875,9.08854167 72.0703125,9.13194444 C72.0052083,9.14496528 71.796875,9.20572917 71.6059028,9.27083333 L71.2543403,9.38802083 L70.9244792,9.22743056 C70.7421875,9.14496528 70.4774306,9.05381944 70.3385417,9.02777778 C70.1953125,9.00607639 70.0694444,8.96701389 70.0564236,8.94965278 C70.0086806,8.88454861 69.6137153,8.6328125 69.4314236,8.55034722 C69.3315972,8.50694444 69.1362847,8.45920139 68.9973958,8.44184028 C68.8324653,8.42447917 68.6024306,8.34635417 68.3376736,8.22048611 C67.9557292,8.03819444 67.9079861,7.99913194 67.5260417,7.56944444 C67.0833333,7.06597222 66.7708333,6.84461806 66.2760417,6.68402778 C65.5859375,6.45833333 64.7612847,6.44965278 64.0668403,6.66232639 C63.6154514,6.796875 63.5677083,6.796875 63.2725694,6.66232639 C62.9166667,6.49739583 62.5998264,6.45399306 62.2743056,6.51475694 C62.1223958,6.54513889 61.6493056,6.57118056 61.2196181,6.57552083 C60.6163194,6.58420139 60.3385417,6.60590278 59.9956597,6.67534722 C59.6571181,6.74913194 59.3315972,6.77517361 58.59375,6.79253472 L57.6388889,6.81857639 L57.3480903,6.70138889 C56.9487847,6.54079861 56.6970486,6.54947917 56.2413194,6.72743056 C55.3819444,7.06597222 55.2560764,7.109375 54.9696181,7.19618056 C54.8046875,7.24392361 54.5703125,7.29600694 54.4487847,7.31336806 C53.9973958,7.36979167 53.4592014,7.55642361 53.1640625,7.75173611 C53.0034722,7.85590278 52.7994792,7.96875 52.7039931,8.00347222 C52.6128472,8.03385417 52.3828125,8.14236111 52.1918403,8.23784722 C52.0008681,8.33333333 51.6102431,8.48090278 51.3237847,8.57204861 C51.0373264,8.65885417 50.7335069,8.77604167 50.6510417,8.828125 C50.4296875,8.97135417 49.3142361,9.48784722 49.1102431,9.54427083 C49.0147569,9.5703125 48.7977431,9.59201389 48.6328125,9.59201389 C48.4461806,9.59201389 48.2942708,9.61371528 48.2421875,9.65277778 C48.0859375,9.76128472 47.5086806,9.93055556 47.2135417,9.95659722 C46.9140625,9.98697917 46.6579861,10.0564236 46.6579861,10.1085069 C46.6579861,10.1258681 46.484375,10.1953125 46.2673611,10.2604167 C45.9331597,10.3645833 45.859375,10.3732639 45.7248264,10.3298611 C45.6293403,10.2994792 45.46875,10.2907986 45.2907986,10.3081597 C44.9826389,10.3428819 44.3142361,10.2647569 44.140625,10.1779514 C44.0798611,10.1475694 43.9366319,10.1085069 43.8237847,10.0911458 C43.6935764,10.0694444 43.5243056,10 43.3680556,9.89149306 C43.2335069,9.80034722 43.0642361,9.71354167 42.9904514,9.69618056 C42.7126736,9.63975694 42.4609375,9.53559028 42.1744792,9.36631944 C41.8012153,9.140625 41.5798611,9.11458333 41.171875,9.24045139 C41.0112847,9.29253472 40.8029514,9.33159722 40.7161458,9.33159722 C40.6293403,9.33159722 40.2994792,9.37065972 39.9869792,9.42274306 L39.4097222,9.51822917 L39.2447917,9.40104167 C39.0494792,9.27083333 38.8020833,9.25347222 38.5503472,9.35329861 C38.2465278,9.48350694 37.7473958,9.5703125 36.9965278,9.63107639 C36.4756944,9.67447917 36.4236111,9.69618056 35.8940972,10.0694444 C35.7378472,10.1822917 35.4774306,10.3385417 35.3081597,10.4253472 C33.9105903,11.1414931 33.6328125,11.25 33.0729167,11.3020833 C32.578125,11.3454861 32.1006944,11.4105903 31.9444444,11.4583333 C31.6840278,11.5321181 31.5798611,11.5104167 31.4236111,11.3498264 C31.2586806,11.1762153 31.1284722,11.1588542 31.0112847,11.2847222 C30.8897569,11.4192708 30.78125,11.3888889 30.546875,11.171875 C30.2951389,10.9375 29.9522569,10.7682292 29.609375,10.7204861 C29.4748264,10.703125 29.2708333,10.6380208 29.1579861,10.5772569 C28.9322917,10.4600694 28.3333333,10.3776042 28.2421875,10.4513889 C28.2118056,10.4774306 27.8602431,10.5078125 27.4522569,10.5208333 L26.7144097,10.546875 L26.4236111,10.7508681 C26.2630208,10.859375 26.0980903,10.9852431 26.0590278,11.0286458 C25.9982639,11.09375 25.9201389,11.1111111 25.6727431,11.1111111 C25.3125,11.1111111 24.9696181,11.2282986 24.6137153,11.4713542 C24.4878472,11.5625 24.3576389,11.6319444 24.3272569,11.6319444 C24.2925347,11.6319444 24.2144097,11.5711806 24.1449653,11.4973958 C23.7369792,11.0460069 23.2118056,10.6119792 22.9513889,10.5164931 C22.7430556,10.4383681 22.3958333,10.4600694 22.2612847,10.5598958 C22.1571181,10.6336806 22.1354167,10.6336806 21.9965278,10.5772569 C21.8532986,10.5164931 21.5842014,10.1953125 21.4756944,9.95659722 C21.3845486,9.76128472 21.1848958,9.67881944 20.7942708,9.67881944 C20.4036458,9.67881944 19.5399306,9.5703125 19.3359375,9.49652778 C19.0972222,9.40972222 18.9366319,9.25347222 18.7760417,8.9453125 C18.6892361,8.77604167 18.5763889,8.61545139 18.5286458,8.59375 C18.4852431,8.56770833 18.3463542,8.45920139 18.2248264,8.35069444 L18.0034722,8.15104167 L17.7126736,8.17274306 C17.5564236,8.18142361 17.3394097,8.22048611 17.2309028,8.25520833 C16.9748264,8.34201389 16.7013889,8.41145833 16.3802083,8.46788194 C16.1458333,8.51128472 16.09375,8.50694444 15.9201389,8.42881944 C15.7682292,8.36371528 15.7118056,8.31163194 15.6901042,8.22048611 C15.6770833,8.15104167 15.5685764,7.96006944 15.4557292,7.79947917 C15.2387153,7.49131944 14.8350694,7.16145833 14.4618056,6.98350694 C14.3576389,6.93576389 14.140625,6.76215278 13.9800347,6.6015625 C13.8194444,6.44097222 13.59375,6.26302083 13.4809028,6.20659722 C13.3680556,6.15451389 13.2204861,6.06336806 13.1510417,6.00260417 C13.0381944,5.90711806 12.9600694,5.89409722 12.4479167,5.85069444 C11.7534722,5.79861111 11.1197917,5.82899306 10.8420139,5.92447917 C10.7248264,5.96788194 10.5208333,6.09809028 10.3645833,6.23697917 C10.0434028,6.5234375 9.61805556,6.73611111 9.36197917,6.74045139 C8.61111111,6.74479167 8.0859375,6.70138889 7.97309028,6.62760417 C7.79079861,6.51041667 7.46527778,6.51909722 7.23958333,6.65364583 C6.97048611,6.80989583 6.70138889,6.88802083 6.20659722,6.96614583 C5.859375,7.01822917 5.69010417,7.06597222 5.40798611,7.20920139 C5.00434028,7.41319444 4.89583333,7.41319444 4.71354167,7.21788194 C4.609375,7.10503472 4.60503472,7.10503472 4.10590278,7.12673611 L3.59809028,7.1484375 L3.3984375,7.01822917 C3.12065972,6.83159722 2.86024306,6.83159722 2.62152778,7.01822917 C2.43055556,7.17013889 2.18315972,7.26128472 1.77083333,7.33940972 C1.40190972,7.40885417 1.18923611,7.33506944 0.512152778,6.93142361 L0,6.62326389 L0,3.31163194 L0,-5.68434189e-14 L100,-5.68434189e-14 L200,-5.68434189e-14 L200,5.01302083 C200,8.38975694 199.986979,10.0260417 199.956597,10.0260417 C199.900174,10.0260417 199.583333,9.83072917 199.392361,9.67013889 C199.309896,9.60503472 199.227431,9.54861111 199.205729,9.54861111 C199.184028,9.54861111 199.136285,9.50954861 199.097222,9.46180556 C199.006076,9.34895833 198.519965,9.27083333 198.203125,9.31423611 C197.912326,9.35329861 197.408854,9.5703125 196.87934,9.89149306 C196.636285,10.0390625 196.158854,10.3038194 195.811632,10.4817708 L195.182292,10.8029514 L194.913194,10.7378472 C194.704861,10.6857639 194.544271,10.6727431 194.22309,10.6987847 L193.806424,10.7248264 L193.684896,10.5859375 C193.619792,10.5078125 193.506944,10.3385417 193.4375,10.2126736 C193.363715,10.0824653 193.224826,9.91753472 193.12934,9.83940972 C193.033854,9.76128472 192.834201,9.58767361 192.682292,9.44444444 L192.408854,9.19270833 L192.131076,9.19704861 C191.87934,9.20138889 191.840278,9.18836806 191.779514,9.09722222 C191.679688,8.94097222 191.319444,8.83246528 190.907118,8.83246528 C190.572917,8.83246528 190.546875,8.84114583 190.138889,9.0625 C189.6875,9.30555556 189.522569,9.3359375 189.301215,9.21875 C189.075521,9.1015625 188.771701,9.13628472 187.521701,9.4140625 C187.309028,9.46180556 186.818576,9.53993056 186.436632,9.59201389 C185.299479,9.74392361 185.199653,9.77430556 184.774306,10.1388889 C184.574653,10.3125 184.296875,10.5121528 184.153646,10.5902778 C184.014757,10.6640625 183.845486,10.7682292 183.780382,10.8246528 C183.710938,10.8767361 183.541667,10.9895833 183.398438,11.0677083 C182.96441,11.3107639 182.539062,11.5928819 182.34375,11.7708333 C182.096354,11.9965278 181.775174,12.1397569 181.371528,12.2048611 L181.037326,12.2526042 L180.885417,12.1180556 C180.685764,11.9444444 180.577257,11.9140625 180.134549,11.9140625 C179.826389,11.9140625 179.765625,11.9270833 179.678819,12.0138889 C179.53559,12.1440972 179.422743,12.1354167 179.275174,11.9791667 C179.205729,11.9053819 179.136285,11.8489583 179.118924,11.8489583 C179.053819,11.8489583 178.702257,11.4800347 178.671875,11.3802083 C178.624132,11.2326389 178.450521,11.2543403 178.389757,11.4149306 C178.368056,11.4887153 178.333333,11.5451389 178.315972,11.5451389 C178.302951,11.5451389 178.220486,11.4887153 178.138021,11.4149306 C177.907986,11.2109375 177.773438,11.2369792 177.482639,11.5277778 C177.248264,11.7621528 177.230903,11.7708333 177.057292,11.7447917 C176.766493,11.7057292 176.588542,11.7795139 176.501736,11.9704861 C176.436632,12.1180556 176.388889,12.1527778 176.145833,12.2395833 C175.746528,12.3784722 175.494792,12.3220486 175.412326,12.0703125 C175.373264,11.9444444 175.134549,11.8402778 174.878472,11.8402778 C174.713542,11.8402778 174.665799,11.8619792 174.578993,11.9748264 C174.448785,12.1397569 174.361979,12.1527778 173.546007,12.1657986 L172.894965,12.1744792 L172.634549,12.3611111 C172.469618,12.4739583 172.322049,12.5434028 172.243924,12.5434028 C172.148438,12.5434028 172.065972,12.5954861 171.914062,12.7560764 C171.740451,12.9383681 171.675347,12.9774306 171.458333,13.0208333 C171.315104,13.046875 171.128472,13.1206597 171.041667,13.1814236 C170.907118,13.2725694 170.850694,13.2855903 170.716146,13.2595486 C170.625,13.2421875 170.460069,13.2248264 170.351562,13.2161458 C170.221354,13.2118056 170.095486,13.1684028 169.982639,13.0902778 C169.891493,13.0295139 169.796007,12.9774306 169.769965,12.9774306 C169.743924,12.9774306 169.6875,12.9079861 169.644097,12.8255208 C169.496528,12.5520833 169.431424,12.5217014 169.036458,12.5347222 C168.654514,12.5434028 168.611111,12.5303819 168.177083,12.2265625 C168.046875,12.1354167 167.894965,12.0052083 167.842882,11.9357639 C167.565104,11.5581597 166.987847,11.5538194 165.980903,11.9184028 C165.065104,12.2482639 165.043403,12.2526042 164.743924,12.1788194 C164.513889,12.1180556 164.409722,12.1180556 164.010417,12.1614583 C163.493924,12.2178819 162.821181,12.1614583 162.638889,12.0399306 C162.582465,12.0008681 162.460938,11.9444444 162.365451,11.9140625 C162.269965,11.8793403 162.126736,11.8012153 162.044271,11.7361111 C161.853299,11.5928819 161.019965,11.2977431 160.568576,11.2152778 C160.377604,11.1848958 160.112847,11.1241319 159.982639,11.0894097 C159.852431,11.0546875 159.68316,11.0243056 159.600694,11.0243056 C159.522569,11.0243056 159.375,10.9852431 159.270833,10.9375 C158.984375,10.8116319 158.841146,10.8550347 158.055556,11.328125 C157.039931,11.9401042 156.345486,12.265625 155.807292,12.3871528 C155.559896,12.4435764 155.238715,12.5303819 155.091146,12.5824653 C154.943576,12.6302083 154.796007,12.6736111 154.765625,12.6736111 C154.730903,12.6736111 154.570312,12.7300347 154.405382,12.8038194 C154.192708,12.890625 154.027778,12.9340278 153.862847,12.9340278 C153.732639,12.9340278 153.420139,12.9730903 153.172743,13.0208333 C152.921007,13.0685764 152.686632,13.0989583 152.65191,13.0815972 C152.612847,13.0685764 152.239583,13.0381944 151.822917,13.0164931 C150.898438,12.96875 150.77691,12.9904514 150.347222,13.3072917 C150.177951,13.4331597 149.887153,13.6197917 149.704861,13.7196181 L149.375,13.9019097 L149.084201,13.8237847 C148.736979,13.7369792 147.803819,13.7022569 147.417535,13.7630208 C147.274306,13.7890625 147.070312,13.8541667 146.961806,13.9149306 C146.853299,13.9713542 146.671007,14.0668403 146.549479,14.1276042 C146.432292,14.1883681 146.280382,14.2795139 146.210938,14.3315972 C146.106771,14.4184028 146.041667,14.4270833 145.625,14.4314236 C145.190972,14.4314236 145.147569,14.4227431 144.978299,14.3142361 C144.878472,14.2491319 144.704861,14.1710069 144.587674,14.1449653 C144.474826,14.1145833 144.140625,13.9756944 143.845486,13.8368056 C143.237847,13.5416667 143.203125,13.5373264 142.178819,13.6154514 C141.783854,13.6458333 141.549479,13.6805556 141.484375,13.7239583 C141.419271,13.7673611 141.215278,13.8020833 140.94184,13.8237847 C140.46441,13.8585069 140.247396,13.8151042 139.84375,13.6024306 C139.52691,13.4375 139.0625,13.3550347 138.346354,13.3420139 L137.695312,13.3289931 L137.131076,13.7109375 C136.684028,14.0104167 136.519097,14.0972222 136.358507,14.1189236 C135.959201,14.1753472 135.529514,14.3315972 135.3125,14.5008681 C135.195312,14.5963542 135.069444,14.6701389 135.026042,14.6701389 C134.904514,14.6701389 134.466146,14.5052083 134.335938,14.4097222 C134.088542,14.2361111 133.867188,14.3098958 133.342014,14.7352431 C133.151042,14.8871528 133.007812,14.9175347 132.834201,14.84375 Z" id="Shape"></path>
            </g>
        </g>
    </g>
</svg>