<svg width="200" height="64" viewBox="0 0 200 64" fill="none" xmlns="http://www.w3.org/2000/svg">
<path d="M0.742898 50V0.545453H21.1719C24.8745 0.545453 28.0701 1.26989 30.7585 2.71875C33.4631 4.15151 35.5478 6.15577 37.0128 8.73153C38.4777 11.2912 39.2102 14.2694 39.2102 17.6662C39.2102 21.0791 38.4616 24.0653 36.9645 26.625C35.4834 29.1686 33.3665 31.1406 30.6136 32.5412C27.8608 33.9418 24.5928 34.642 20.8097 34.642H8.20455V25.2244H18.5881C20.3911 25.2244 21.8963 24.9105 23.1037 24.2827C24.3272 23.6548 25.2528 22.7775 25.8807 21.6506C26.5085 20.5076 26.8224 19.1794 26.8224 17.6662C26.8224 16.1368 26.5085 14.8168 25.8807 13.706C25.2528 12.5791 24.3272 11.7098 23.1037 11.098C21.8802 10.4863 20.375 10.1804 18.5881 10.1804H12.696V50H0.742898ZM68.3527 33.9901V12.9091H80.1368V50H68.8839V43.0938H68.4976C67.6765 45.3636 66.276 47.1667 64.2959 48.5028C62.3318 49.8229 59.9573 50.483 57.1723 50.483C54.6448 50.483 52.4232 49.9034 50.5075 48.7443C48.5918 47.5852 47.1027 45.9673 46.0402 43.8906C44.9777 41.7978 44.4384 39.3509 44.4223 36.5497V12.9091H56.2305V34.2315C56.2466 36.2438 56.7779 37.8295 57.8243 38.9886C58.8707 40.1477 60.2954 40.7273 62.0984 40.7273C63.2736 40.7273 64.328 40.4697 65.2618 39.9545C66.2116 39.4233 66.9602 38.6586 67.5075 37.6605C68.0709 36.6463 68.3527 35.4228 68.3527 33.9901ZM98.781 0.545453V50H86.9727V0.545453H98.781ZM117.425 0.545453V50H105.617V0.545453H117.425ZM141.599 50.7003C137.72 50.7003 134.371 49.9356 131.554 48.4062C128.753 46.8608 126.595 44.6634 125.082 41.8139C123.585 38.9484 122.836 35.5436 122.836 31.5994C122.836 27.768 123.593 24.4195 125.106 21.554C126.62 18.6723 128.753 16.4347 131.505 14.8409C134.258 13.2311 137.502 12.4261 141.237 12.4261C143.877 12.4261 146.292 12.8366 148.481 13.6577C150.671 14.4787 152.562 15.6941 154.156 17.304C155.75 18.9138 156.989 20.902 157.875 23.2685C158.76 25.6188 159.203 28.3153 159.203 31.358V34.304H126.966V27.446H148.216C148.2 26.1903 147.902 25.0715 147.322 24.0895C146.743 23.1075 145.946 22.3428 144.932 21.7955C143.934 21.232 142.782 20.9503 141.479 20.9503C140.158 20.9503 138.975 21.2481 137.929 21.8438C136.882 22.4233 136.053 23.2202 135.442 24.2344C134.83 25.2325 134.508 26.3674 134.476 27.6392V34.6179C134.476 36.1312 134.773 37.4593 135.369 38.6023C135.965 39.7292 136.81 40.6065 137.905 41.2344C138.999 41.8622 140.303 42.1761 141.817 42.1761C142.863 42.1761 143.813 42.0312 144.666 41.7415C145.519 41.4517 146.252 41.0251 146.863 40.4616C147.475 39.8982 147.934 39.206 148.24 38.3849L159.082 38.6989C158.631 41.1297 157.641 43.2467 156.112 45.0497C154.599 46.8366 152.611 48.2292 150.148 49.2273C147.684 50.2093 144.835 50.7003 141.599 50.7003ZM170.778 63.9091C169.361 63.9091 168.025 63.7964 166.769 63.571C165.514 63.3617 164.435 63.08 163.534 62.7259L166.142 54.1534C167.301 54.5398 168.347 54.7652 169.281 54.8295C170.231 54.8939 171.044 54.741 171.72 54.3707C172.412 54.0166 172.943 53.3807 173.313 52.4631L173.772 51.3523L160.588 12.9091H172.951L179.785 39.375H180.171L187.102 12.9091H199.538L185.556 53.5497C184.88 55.5781 183.922 57.3651 182.683 58.9105C181.459 60.4721 179.874 61.6955 177.926 62.581C175.994 63.4664 173.611 63.9091 170.778 63.9091Z" fill="#2F644B"/>
</svg>
