<svg width="36" height="12" viewBox="0 0 36 12" fill="none" xmlns="http://www.w3.org/2000/svg">
<path d="M0.660511 9V0.272727H4.26562C4.91903 0.272727 5.48295 0.400568 5.95739 0.65625C6.43466 0.909091 6.80256 1.26278 7.06108 1.71733C7.3196 2.16903 7.44886 2.6946 7.44886 3.29403C7.44886 3.89631 7.31676 4.4233 7.05256 4.875C6.79119 5.32386 6.41761 5.67187 5.93182 5.91903C5.44602 6.16619 4.86932 6.28977 4.2017 6.28977H1.97727V4.62784H3.80966C4.12784 4.62784 4.39347 4.57244 4.60653 4.46165C4.82244 4.35085 4.9858 4.19602 5.09659 3.99716C5.20739 3.79545 5.26278 3.56108 5.26278 3.29403C5.26278 3.02415 5.20739 2.79119 5.09659 2.59517C4.9858 2.39631 4.82244 2.2429 4.60653 2.13494C4.39063 2.02699 4.125 1.97301 3.80966 1.97301H2.76989V9H0.660511ZM12.4716 6.17472V2.45455H14.5512V9H12.5654V7.78125H12.4972C12.3523 8.18182 12.1052 8.5 11.7557 8.7358C11.4091 8.96875 10.9901 9.08523 10.4986 9.08523C10.0526 9.08523 9.66057 8.98295 9.3225 8.77841C8.98443 8.57386 8.72165 8.28835 8.53415 7.92188C8.34665 7.55256 8.25148 7.12074 8.24864 6.62642V2.45455H10.3324V6.21733C10.3353 6.57244 10.429 6.85227 10.6137 7.05682C10.7984 7.26136 11.0498 7.36364 11.368 7.36364C11.5753 7.36364 11.7614 7.31818 11.9262 7.22727C12.0938 7.13352 12.2259 6.99858 12.3225 6.82244C12.4219 6.64347 12.4716 6.42756 12.4716 6.17472ZM17.7213 0.272727V9H15.6375V0.272727H17.7213ZM20.8915 0.272727V9H18.8077V0.272727H20.8915ZM25.0375 9.12358C24.3529 9.12358 23.7619 8.98864 23.2648 8.71875C22.7705 8.44602 22.3898 8.05824 22.1227 7.5554C21.8585 7.04972 21.7264 6.44886 21.7264 5.75284C21.7264 5.0767 21.86 4.4858 22.127 3.98011C22.394 3.47159 22.7705 3.0767 23.2563 2.79545C23.7421 2.51136 24.3145 2.36932 24.9736 2.36932C25.4395 2.36932 25.8656 2.44176 26.252 2.58665C26.6384 2.73153 26.9722 2.94602 27.2534 3.23011C27.5347 3.5142 27.7534 3.86506 27.9097 4.28267C28.0659 4.69744 28.144 5.1733 28.144 5.71023V6.23011H22.4551V5.01989H26.2051C26.2023 4.7983 26.1497 4.60085 26.0475 4.42756C25.9452 4.25426 25.8046 4.11932 25.6256 4.02273C25.4494 3.9233 25.2463 3.87358 25.0162 3.87358C24.7833 3.87358 24.5744 3.92614 24.3898 4.03125C24.2051 4.13352 24.0588 4.27415 23.9509 4.45312C23.8429 4.62926 23.7861 4.82955 23.7804 5.05398V6.28551C23.7804 6.55256 23.833 6.78693 23.9381 6.98864C24.0432 7.1875 24.1923 7.34233 24.3855 7.45312C24.5787 7.56392 24.8088 7.61932 25.0759 7.61932C25.2605 7.61932 25.4281 7.59375 25.5787 7.54261C25.7293 7.49148 25.8585 7.41619 25.9665 7.31676C26.0744 7.21733 26.1554 7.09517 26.2094 6.95028L28.1227 7.00568C28.0432 7.43466 27.8685 7.80824 27.5986 8.12642C27.3315 8.44176 26.9807 8.6875 26.546 8.86364C26.1114 9.03693 25.6085 9.12358 25.0375 9.12358ZM30.0667 11.4545C29.8167 11.4545 29.5809 11.4347 29.3593 11.3949C29.1377 11.358 28.9474 11.3082 28.7883 11.2457L29.2485 9.73295C29.4531 9.80114 29.6377 9.84091 29.8025 9.85227C29.9701 9.86364 30.1136 9.83665 30.2329 9.77131C30.355 9.70881 30.4488 9.59659 30.5141 9.43466L30.5951 9.23864L28.2684 2.45455H30.4502L31.6562 7.125H31.7244L32.9474 2.45455H35.142L32.6746 9.62642C32.5553 9.98438 32.3863 10.2997 32.1675 10.5724C31.9516 10.848 31.6718 11.0639 31.3281 11.2202C30.9871 11.3764 30.5667 11.4545 30.0667 11.4545Z" fill="#2F644B"/>
</svg>
