<svg viewBox="0 0 1123.8 144" xmlns="http://www.w3.org/2000/svg">
  <path d="M1077.3 39.1c-30.9 0-50.3 20.9-50.3 52.5 0 31.5 19.1 52.5 49.5 52.5 23.7 0 40.7-12.8 46.5-33.3h-20.1c-3.8 10.4-13.6 16.8-26.3 16.8-17.2 0-27.7-11.2-29.7-29.9h76.2c4.8-32.1-12.5-58.6-45.8-58.6zm27.1 43.3h-57.2c2.6-17.2 13-27.1 29.5-27.1 17.7-.1 28.5 12.2 27.7 27.1zm-777 4.4v54.6h-18.5v-54c0-13.2 0-31.3-19.3-31.3-17.2 0-28.9 14.8-28.9 36.9v48.5H242V41.7h18.5v18.9c7.2-13.6 19.5-21.5 34.9-21.5 32 0 32 31.3 32 47.7zm131.5-45.1h18.5v99.7h-18.5V41.7zM481.3 13c0 7.2-5.6 13-13 13s-13-5.8-13-13c0-7.4 5.6-13 13-13s13 5.6 13 13zm103.6 100.1c0 19.3-17 30.9-41.9 30.9-27.5 0-46.1-14.4-43.9-39.3H517c-2 14.4 8.2 23.9 26.1 23.9 13.8 0 22.7-5.4 22.7-14 0-22.9-65.4-7.4-65.4-44.1 0-19.3 18.5-31.5 41.3-31.5 26.5 0 45.1 16 40.3 37.1h-18c3.2-12.8-7.4-21.7-22.7-21.7-12.4 0-21.7 5.8-21.7 14.6.1 22.3 65.3 6.4 65.3 44.1zm100.3 0c0 19.3-17 30.9-41.9 30.9-27.5 0-46.1-14.4-43.9-39.3h17.9c-2 14.4 8.2 23.9 26.1 23.9 13.8 0 22.7-5.4 22.7-14 0-22.9-65.4-7.4-65.4-44.1 0-19.3 18.5-31.5 41.3-31.5 26.5 0 45.1 16 40.3 37.1h-18c3.2-12.8-7.4-21.7-22.7-21.7-12.4 0-21.7 5.8-21.7 14.6.1 22.3 65.3 6.4 65.3 44.1zM897 86.8v54.6h-18.5v-54c0-13.2 0-31.3-19.3-31.3-17.2 0-28.9 14.8-28.9 36.9v48.5h-18.5V41.7h18.5v18.9c7.2-13.6 19.5-21.5 34.9-21.5 31.8 0 31.8 31.3 31.8 47.7zm-109.7-1.3c0-38.9-24.1-46.6-41-46.6-29.3 0-41.2 17.6-40.2 29.9.3 4.4 1 7.1 1 7.1h19.3c.1.2-.6-2.5-.6-5 0-2.7.9-15.4 19.5-15.4 19.2 0 24.2 14.5 24.2 32.8v2.1c-7.3-4.6-16.9-7.5-29.5-7.5-17.7 0-40.1 8.4-40.1 31.5 0 16.7 12.3 29.6 35.8 29.6 15.6 0 28.4-6.5 37.3-16.8.8 4.2 1.3 8.9 1.3 14.1h18.6s1.1-19-8.4-35.3c1.7-6.5 2.8-13.4 2.8-20.5zm-50.3 43c-13 0-18.5-6.3-18.5-14.9 0-6.7 5.2-15.6 22-15.6 10.2 0 19 3.8 25 11.7-4.9 11.6-14.4 18.8-28.5 18.8zM112 47.9C109.9 19.8 87.6.3 59.7.4H0v139.4h19.7v-122h41.1c14.8.5 28.5 9.5 32.4 24.2 2.5 9.3 2.4 19.8-1.6 28.6-4.5-4.8-9.7-8.7-15.9-11.5-7.3-3-15.5-4.1-23.2-2.4C41.7 59 31.9 68 31.4 79.5c-.8 11.5 6.4 22.2 17.3 25.8 12.6 4.1 27.4.1 38.7-6.8 4.6 13.1 5.7 27.3 5.7 41.4h20.6c-.1-17.1-3.2-37.7-11.8-54.4 8-10.6 11.4-23.9 10.1-37.6zM56.8 91.2c-5.8-.6-10.1-4.8-9.7-10.8.2-4.4 4.5-7.7 8.8-8.5 6.9-1.1 13.8 1.5 19 6.1 2 1.8 3.8 3.9 5.4 6.2-6.8 4.9-15.4 7.6-23.5 7zm936.7 14.5h20.1c-4.2 19.7-19.9 38.3-47.9 38.3-29.5 0-49.3-21.1-49.3-52.5 0-31.5 19.5-52.5 50.3-52.5 28.7 0 49.7 18.6 46.2 46.6h-19.1c1.1-21-13-30.1-27.4-30.1-18.6.1-30.4 14.5-30.4 36s12 35.9 29.9 35.9c13.8 0 23.6-8.5 27.6-21.7zM433.6 85.5c0-38.9-24.1-46.6-41-46.6-29.3 0-41.2 17.6-40.2 29.9.3 4.4 1 7.1 1 7.1h19.3c.1.2-.6-2.5-.6-5 0-2.7.9-15.4 19.5-15.4 19.2 0 24.2 14.5 24.2 32.8v2.1c-7.3-4.6-16.9-7.5-29.5-7.5-17.7 0-40.1 8.4-40.1 31.5 0 16.7 12.3 29.6 35.8 29.6 15.6 0 28.4-6.5 37.3-16.8.8 4.2 1.3 8.9 1.3 14.1h18.6s1.1-19-8.4-35.3c1.8-6.5 2.8-13.4 2.8-20.5zm-50.2 43c-13 0-18.5-6.3-18.5-14.9 0-6.7 5.2-15.6 22-15.6 10.2 0 19 3.8 25 11.7-5 11.6-14.5 18.8-28.5 18.8zM176.6 39.1c-30.9 0-50.3 20.9-50.3 52.5 0 31.5 19.1 52.5 49.5 52.5 23.7 0 40.7-12.8 46.5-33.3h-20.1c-3.8 10.4-13.6 16.8-26.3 16.8-17.2 0-27.7-11.2-29.7-29.9h76.2c4.8-32.1-12.6-58.6-45.8-58.6zm27 43.3h-57.2c2.6-17.2 13-27.1 29.5-27.1 17.8-.1 28.6 12.2 27.7 27.1z"/>
</svg>
