<?xml version="1.0" encoding="utf-8"?>
<!-- Generator: Adobe Illustrator 24.0.3, SVG Export Plug-In . SVG Version: 6.00 Build 0)  -->
<svg version="1.1" id="Layer_1" xmlns="http://www.w3.org/2000/svg" xmlns:xlink="http://www.w3.org/1999/xlink" x="0px" y="0px"
	 viewBox="0 0 310.7 60" style="enable-background:new 0 0 310.7 60;" xml:space="preserve">
<style type="text/css">
	.st0{display:none;}
	.st1{display:inline;fill:#BBBCBB;}
	.st2{display:inline;fill:#949499;}
	.st3{display:inline;fill:#FDB913;}
	.st4{fill:#FFFFFF;}
	.st5{display:none;opacity:0.5;fill:#DC61A4;enable-background:new    ;}
	.st6{fill:#FDB913;}
</style>
<g class="st0">
	<path class="st1" d="M-117.2,6.4h7.9c0.2,3.1,0,5.7,6.7,5.7c3.2,0,6.1,0,6.1-3.9c0-3-2.4-2.6-8.6-4c-7.8-1.6-11.1-3.9-11.1-9.5
		c0-7.6,6.1-9.6,13.2-9.6c13.5,0,13.3,8.5,13.5,10.7h-7.9c-0.2-2.9-0.7-4.5-5.7-4.5c-2.4,0-5,0.4-5,2.9s1.9,2.6,9.5,4.2
		c6.8,1.5,10.4,4,10.4,9.9c0,6.9-5.1,10.1-14.5,10.1C-116.6,18.5-117.2,9.9-117.2,6.4"/>
	<path class="st1" d="M-86.8-14h4.2v-10h8.4v10h5.2v5.5h-5.2V7.9c0,1.6,0,2.3,0.5,2.8s1.2,0.5,1.9,0.5h2.7v6.4H-74
		c-2.3,0-5.4-0.1-7-1.6s-1.7-4.5-1.7-6.4v-18h-4.2L-86.8-14L-86.8-14z"/>
	<path class="st1" d="M-65.1-14h8.4V7c0,3.3,1.8,4.8,5.4,4.8c4.2,0,5.6-1.6,5.6-5.2V-14h8.4v31.6h-8.2v-3.5c-1.2,2.2-2,4.3-9.2,4.3
		c-9.6,0-10.4-6.5-10.4-9.2V-14z"/>
	<path class="st2" d="M-10.6-11.1v-14.8h8.4v43.6h-8v-3.9c-1.1,1.7-3,4.7-8.8,4.7c-8.9,0-13.3-6.4-13.3-16.9
		c0-9.9,3.5-16.4,13.1-16.4C-13.7-14.8-12-12.8-10.6-11.1 M-17.5-8.5c-5.1,0-6.5,2.4-6.5,9.6c0,6.6,1.1,10.9,6.3,10.9
		c7,0,7.2-5.8,7.2-10.1C-10.4-5.4-12.5-8.5-17.5-8.5"/>
	<path class="st1" d="M-10.6-11.1v-12.8h8.4v41.6h-8v-3.9c-1.1,1.7-3,4.7-8.8,4.7c-8.9,0-13.3-6.4-13.3-16.9
		c0-9.9,3.5-16.4,13.1-16.4C-13.7-14.8-12-12.8-10.6-11.1 M-17.5-8.5c-5.1,0-6.5,2.4-6.5,9.6c0,6.6,1.1,10.9,6.3,10.9
		c7,0,7.2-5.8,7.2-10.1C-10.4-5.4-12.5-8.5-17.5-8.5"/>
	<path class="st1" d="M1.2-14H10l7.5,21.6L24.3-14h8.9L21.4,16.7c-2.2,5.7-3.5,8.1-5.2,9.6c-2,1.7-4.8,1.8-5.8,1.8H4.2v-7H8
		c1.8,0,2.3-0.1,2.8-0.4c0.4-0.2,0.9-1.2,1.3-2.2l1.3-3.1L1.2-14z"/>
	<path class="st3" d="M25,14.1L25,14.1l3-7.7h2.6c0.2,3.1,0,5.7,6.7,5.7c3.2,0,6.1,0,6.1-3.9c0-3-2.4-2.6-8.6-4
		c-2.1-0.4-4-0.9-5.4-1.5l0,0l2.7-7.1l0,0c0.8,1.2,3.3,1.5,9.1,2.7c6.8,1.5,10.4,4,10.4,9.9c0,6.9-5.1,10.1-14.5,10.1
		C30.6,18.5,27,16.5,25,14.1"/>
	<path class="st3" d="M36.2-14.8L36.2-14.8c0.2,0,0.5,0,0.7,0c13.5,0,13.3,8.5,13.5,10.7h-7.9c-0.2-2.9-0.7-4.5-5.7-4.5
		c-1.1,0-2.2,0.1-3.1,0.4l0,0L36.2-14.8z"/>
	<path class="st3" d="M50.8-14h8.8l7.5,21.6L73.9-14h8.9L71,16.7c-2.2,5.7-3.5,8.1-5.2,9.6c-2,1.7-4.8,1.8-5.8,1.8h-6.2v-7h3.9
		c1.8,0,2.3-0.1,2.8-0.4c0.4-0.2,0.9-1.2,1.3-2.2l1.3-3.1L50.8-14z"/>
	<path class="st3" d="M86.2-14h8.1v4.3c0.6-1.9,1.3-5.1,8.4-5.1c7.3,0,11.2,2.5,11.2,10.1v22.4h-8.4v-21c0-3.1-1.2-4.9-5.5-4.9
		c-3.5,0-5.4,1.1-5.4,5.5v20.4h-8.4C86.2,17.7,86.2-14,86.2-14z"/>
	<path class="st3" d="M141.1-3.1c-0.4-2.4-0.4-5.3-6.6-5.3c-6.1,0-7.4,4.6-7.4,9.6c0,7.3,1.6,11.1,7.1,11.1c6.9,0,6.5-3.1,6.9-6.4
		h8.3c0,4.9-2.6,12.6-14.9,12.6c-10,0-15.5-5.5-15.5-16.7c0-9.5,4.1-16.5,16.2-16.5c10.5,0,14,5.5,14,11.7h-8.1V-3.1z"/>
</g>
<g id="NEW_LOGOTYPE_3_">
	<path class="st4" d="M41.3,34.4h7.9c0.2,3.1,0,5.7,6.7,5.7c3.2,0,6.1,0,6.1-3.9c0-3-2.4-2.6-8.6-4c-7.8-1.6-11.1-3.9-11.1-9.5
		c0-7.6,6.1-9.6,13.2-9.6c13.5,0,13.3,8.5,13.5,10.7h-7.9c-0.2-2.9-0.7-4.5-5.7-4.5c-2.4,0-5,0.4-5,2.9s1.9,2.6,9.5,4.2
		c6.8,1.5,10.4,4,10.4,9.9c0,6.9-5.1,10.1-14.5,10.1C41.9,46.4,41.3,37.9,41.3,34.4"/>
	<path class="st4" d="M71.8,14H76V4h8.4v10h5.2v5.5h-5.2v16.3c0,1.6,0,2.3,0.5,2.8s1.2,0.5,1.9,0.5h2.7v6.4h-4.9
		c-2.3,0-5.4-0.1-7-1.6s-1.7-4.5-1.7-6.4v-18h-4.2L71.8,14L71.8,14z"/>
	<path class="st4" d="M93.5,14h8.4v21c0,3.3,1.8,4.8,5.4,4.8c4.2,0,5.6-1.6,5.6-5.2V14h8.4v31.6H113v-3.5c-1.2,2.2-2,4.3-9.2,4.3
		c-9.6,0-10.4-6.5-10.4-9.2L93.5,14L93.5,14z"/>
	<path class="st4" d="M147.5,16.8V4h8.4v41.6h-8v-3.9c-1.1,1.7-3,4.7-8.8,4.7c-8.9,0-13.3-6.4-13.3-16.9c0-9.9,3.5-16.4,13.1-16.4
		C144.3,13.2,146.1,15.1,147.5,16.8 M140.6,19.5c-5.1,0-6.5,2.4-6.5,9.6c0,6.6,1.1,10.9,6.3,10.9c7,0,7.2-5.8,7.2-10.1
		C147.7,22.6,145.6,19.5,140.6,19.5"/>
	<path class="st4" d="M158.8,14h8.8l7.5,21.6l6.8-21.6h8.9L179,44.6c-2.2,5.7-3.5,8.1-5.2,9.6c-2,1.7-4.8,1.8-5.8,1.8h-6.1v-7h3.9
		c1.8,0,2.3-0.1,2.8-0.4c0.4-0.2,0.9-1.2,1.3-2.2l1.3-3.1L158.8,14z"/>
	<path class="st5" d="M24.3,6.4h7.9c0.2,3.1,0,5.7,6.7,5.7c3.2,0,6.1,0,6.1-3.9c0-3-2.4-2.6-8.6-4c-7.8-1.6-11.1-3.9-11.1-9.5
		c0-7.6,6.1-9.6,13.2-9.6C52-14.8,51.8-6.3,52-4.1h-7.9c-0.2-2.9-0.7-4.5-5.7-4.5c-2.4,0-5,0.4-5,2.9s1.9,2.6,9.5,4.2
		c6.8,1.5,10.4,4,10.4,9.9c0,6.9-5.1,10.1-14.5,10.1C24.9,18.5,24.3,9.9,24.3,6.4"/>
	<path class="st6" d="M185.1,42.1L185.1,42.1l3-7.7h2.6c0.2,3.1,0,5.7,6.7,5.7c3.2,0,6.1,0,6.1-3.9c0-3-2.4-2.6-8.6-4
		c-2.1-0.4-4-0.9-5.4-1.5l0,0l2.7-7.1l0,0c0.8,1.2,3.3,1.5,9.1,2.7c6.8,1.5,10.4,4,10.4,9.9c0,6.9-5.1,10.1-14.5,10.1
		C190.6,46.4,187,44.5,185.1,42.1"/>
	<path class="st6" d="M196.3,13.2L196.3,13.2c0.2,0,0.5,0,0.7,0c13.5,0,13.3,8.5,13.5,10.7h-7.9c-0.2-2.9-0.7-4.5-5.7-4.5
		c-1.1,0-2.2,0.1-3.1,0.4l0,0L196.3,13.2z"/>
	<path class="st6" d="M210.8,14h8.8l7.5,21.6L234,14h8.9L231,44.6c-2.2,5.7-3.5,8.1-5.2,9.6c-2,1.7-4.8,1.8-5.8,1.8h-6.2v-7h3.9
		c1.8,0,2.3-0.1,2.8-0.4c0.4-0.2,0.9-1.2,1.3-2.2l1.3-3.1L210.8,14z"/>
	<path class="st6" d="M246.2,14h8.1v4.3c0.6-1.9,1.3-5.1,8.4-5.1c7.3,0,11.2,2.5,11.2,10.1v22.4h-8.4v-21c0-3.1-1.2-4.9-5.5-4.9
		c-3.5,0-5.4,1.1-5.4,5.5v20.4h-8.4L246.2,14L246.2,14z"/>
	<path class="st6" d="M301.2,24.8c-0.4-2.4-0.4-5.3-6.6-5.3c-6.1,0-7.4,4.6-7.4,9.6c0,7.3,1.6,11.1,7.1,11.1c6.9,0,6.5-3.1,6.9-6.4
		h8.3c0,4.9-2.6,12.6-14.9,12.6c-10,0-15.5-5.5-15.5-16.7c0-9.5,4.1-16.5,16.2-16.5c10.5,0,14,5.5,14,11.7h-8.1V24.8z"/>
</g>
<g id="NEW_BALLS_3_">
	<path class="st4" d="M25.6,13.2c-4.3,0.1-7.7,3.6-7.6,7.8c0.1,4.3,3.6,7.7,7.8,7.6c4.3-0.1,7.7-3.6,7.6-7.8
		C33.3,16.6,29.9,13.2,25.6,13.2C25.6,13.2,25.6,13.2,25.6,13.2"/>
	<path class="st4" d="M25.6,31c-4.3,0.1-7.7,3.6-7.6,7.8c0.1,4.3,3.6,7.7,7.8,7.6c4.3-0.1,7.7-3.6,7.6-7.8
		C33.3,34.4,29.9,31,25.6,31C25.6,31,25.6,31,25.6,31"/>
	<path class="st4" d="M7.8,31c-4.3,0.1-7.7,3.6-7.6,7.8c0.1,4.3,3.6,7.7,7.8,7.6c4.3-0.1,7.7-3.6,7.6-7.8c-0.1-4.2-3.5-7.6-7.7-7.6
		C7.8,31,7.8,31,7.8,31"/>
	<path class="st6" d="M7.8,13.2c-4.3,0.1-7.7,3.6-7.6,7.8c0.1,4.3,3.6,7.7,7.8,7.6c4.3-0.1,7.7-3.6,7.6-7.8
		c-0.1-4.2-3.5-7.6-7.7-7.6C7.8,13.2,7.8,13.2,7.8,13.2"/>
</g>
</svg>
