<svg width="158" height="44" viewBox="0 0 158 44" fill="none" xmlns="http://www.w3.org/2000/svg">
<path fill-rule="evenodd" clip-rule="evenodd" d="M20.3346 22.898C16.5877 23.0427 13.0576 24.5463 10.3672 27.1695L6.48216 30.9572L6.48216 30.9168L2.5272 26.9766L0 29.4943L3.94173 33.4213L3.93506 33.4279L3.94143 33.4342L3.93209 33.4434L0 37.3615L2.52708 39.8792L6.48204 35.939V35.9293L10.3674 39.717C13.2004 42.4792 16.9645 44 20.9323 44H45.9142C51.7624 44 56.5869 39.3073 56.5869 33.4433C56.5869 27.7802 52.0875 23.2095 46.5118 22.9028V20.4828H20.3346V22.898ZM43.7471 33.7433C43.7471 35.0542 44.8138 36.117 46.1297 36.117C47.4455 36.117 48.5122 35.0542 48.5122 33.7433C48.5122 32.4324 47.4455 31.3696 46.1297 31.3696C44.8138 31.3696 43.7471 32.4324 43.7471 33.7433Z" fill="#1EB76E"/>
<path d="M37.7908 36.1169C36.4749 36.1169 35.4082 35.0542 35.4082 33.7432C35.4082 32.4323 36.4749 31.3696 37.7908 31.3696C39.1066 31.3696 40.1733 32.4323 40.1733 33.7432C40.1733 35.0542 39.1066 36.1169 37.7908 36.1169Z" fill="black"/>
<path d="M29.4519 36.1169C28.136 36.1169 27.0693 35.0542 27.0693 33.7432C27.0693 32.4323 28.136 31.3696 29.4519 31.3696C30.7678 31.3696 31.8345 32.4323 31.8345 33.7432C31.8345 35.0542 30.7678 36.1169 29.4519 36.1169Z" fill="black"/>
<path d="M30.4355 9.37852V0H37.5833V3.5605H34.0094V8.35719C32.3866 8.4395 31.2536 8.91893 30.4355 9.37852Z" fill="#1EB76E"/>
<path d="M30.4355 17.3024V22.7996H34.0094V15.7153C33.9367 15.7536 33.8213 15.8232 33.5889 15.9714C32.912 16.403 31.9349 17.0232 30.4355 17.3024Z" fill="#1EB76E"/>
<path d="M105.57 38.0887C103.564 38.0887 101.98 37.6877 100.818 36.8855L101.729 34.4595C102.27 34.8277 102.884 35.117 103.57 35.3273C104.257 35.5246 104.93 35.6232 105.59 35.6232C105.999 35.6232 106.316 35.564 106.54 35.4457C106.764 35.3273 106.877 35.163 106.877 34.9526C106.877 34.7685 106.791 34.6238 106.619 34.5187C106.461 34.4003 106.151 34.2951 105.689 34.2031L104.065 33.8283C103.036 33.6179 102.29 33.2892 101.828 32.8421C101.379 32.3819 101.155 31.7507 101.155 30.9486C101.155 30.3043 101.346 29.7323 101.729 29.2326C102.112 28.7329 102.64 28.345 103.313 28.0689C103.999 27.7796 104.785 27.6349 105.669 27.6349C106.395 27.6349 107.108 27.7401 107.807 27.9505C108.507 28.1609 109.16 28.4568 109.767 28.8381L108.817 31.205C108.289 30.8631 107.748 30.6001 107.193 30.416C106.639 30.2319 106.118 30.1399 105.629 30.1399C105.233 30.1399 104.923 30.2056 104.699 30.3371C104.474 30.4555 104.362 30.633 104.362 30.8697C104.362 31.0143 104.428 31.1327 104.56 31.2247C104.692 31.3036 104.943 31.3891 105.313 31.4811L106.995 31.8559C108.065 32.1057 108.83 32.4739 109.292 32.9604C109.767 33.4338 110.005 34.0847 110.005 34.9131C110.005 35.8993 109.609 36.6752 108.817 37.2406C108.038 37.806 106.956 38.0887 105.57 38.0887Z" fill="black"/>
<path d="M116.931 38.0887C115.228 38.0887 113.895 37.6285 112.932 36.708C111.968 35.7876 111.486 34.5318 111.486 32.9407C111.486 31.8888 111.717 30.9617 112.179 30.1596C112.654 29.3575 113.314 28.7395 114.159 28.3055C115.004 27.8585 115.981 27.6349 117.089 27.6349C117.828 27.6349 118.554 27.7467 119.267 27.9702C119.98 28.1806 120.547 28.4699 120.97 28.8381L120.059 31.3036C119.703 31.0143 119.287 30.7842 118.812 30.6133C118.337 30.4423 117.881 30.3569 117.446 30.3569C116.706 30.3569 116.139 30.5672 115.743 30.988C115.347 31.4088 115.149 32.0334 115.149 32.8618C115.149 33.7034 115.347 34.3411 115.743 34.7751C116.139 35.1958 116.713 35.4062 117.465 35.4062C117.901 35.4062 118.35 35.3208 118.812 35.1498C119.287 34.9789 119.703 34.7488 120.059 34.4595L120.97 36.8855C120.534 37.2669 119.953 37.5627 119.227 37.7731C118.515 37.9835 117.749 38.0887 116.931 38.0887Z" fill="black"/>
<path d="M128.882 27.6744C129.37 27.6744 129.747 27.7467 130.01 27.8913V31.1458C129.443 30.8828 128.895 30.7513 128.367 30.7513C126.863 30.7513 126.11 31.468 126.11 32.9013V37.9309H122.527V30.7908C122.527 29.7125 122.474 28.7526 122.368 27.9111H125.734L125.952 29.5876C126.189 28.9696 126.572 28.4962 127.1 28.1675C127.628 27.8387 128.222 27.6744 128.882 27.6744Z" fill="black"/>
<path d="M131.43 27.9111H135.013V37.9309H131.43V27.9111ZM135.073 22.9998V26.2148H131.331V22.9998H135.073Z" fill="black"/>
<path d="M144.181 27.6349C145.039 27.6349 145.805 27.8585 146.478 28.3055C147.151 28.7526 147.679 29.3772 148.062 30.1793C148.444 30.9815 148.636 31.9019 148.636 32.9407C148.636 33.9664 148.444 34.8737 148.062 35.6627C147.692 36.4385 147.171 37.0368 146.497 37.4575C145.824 37.8783 145.052 38.0887 144.181 38.0887C143.521 38.0887 142.921 37.9638 142.379 37.714C141.838 37.451 141.423 37.0894 141.132 36.6291V42.1913H137.549V30.7908C137.549 29.7125 137.496 28.7526 137.39 27.9111H140.756L140.954 29.4693C141.205 28.917 141.62 28.4765 142.201 28.1478C142.782 27.8059 143.442 27.6349 144.181 27.6349ZM143.092 35.426C143.739 35.426 144.227 35.2156 144.557 34.7948C144.887 34.374 145.052 33.756 145.052 32.9407C145.052 32.1123 144.881 31.4746 144.537 31.0275C144.207 30.5672 143.726 30.3371 143.092 30.3371C142.445 30.3371 141.95 30.5541 141.607 30.988C141.264 31.422 141.093 32.0597 141.093 32.9013C141.093 33.7165 141.264 34.3411 141.607 34.7751C141.95 35.209 142.445 35.426 143.092 35.426Z" fill="black"/>
<path d="M156.529 35.209C156.766 35.209 157.083 35.1695 157.479 35.0907V37.7929C156.991 37.9901 156.37 38.0887 155.618 38.0887C154.258 38.0887 153.222 37.7074 152.51 36.9447C151.81 36.1821 151.46 35.1235 151.46 33.7691V30.5344H149.579V27.9111H151.46V25.6428L155.044 24.4988V27.9111H157.459V30.5344H155.044V33.7691C155.044 34.2425 155.182 34.6041 155.46 34.854C155.75 35.0907 156.106 35.209 156.529 35.209Z" fill="black"/>
<path d="M69.3292 38.0886C67.323 38.0886 65.7391 37.6876 64.5776 36.8855L65.4884 34.4594C66.0295 34.8276 66.6433 35.1169 67.3296 35.3273C68.0159 35.5245 68.6891 35.6231 69.349 35.6231C69.7582 35.6231 70.0749 35.5639 70.2993 35.4456C70.5237 35.3273 70.6359 35.1629 70.6359 34.9525C70.6359 34.7684 70.5501 34.6238 70.3785 34.5186C70.2201 34.4002 69.91 34.295 69.448 34.203L67.8245 33.8282C66.795 33.6178 66.0493 33.2891 65.5873 32.842C65.1386 32.3818 64.9142 31.7506 64.9142 30.9485C64.9142 30.3042 65.1056 29.7322 65.4884 29.2325C65.8711 28.7328 66.3991 28.3449 67.0722 28.0688C67.7585 27.7795 68.5439 27.6348 69.4282 27.6348C70.1541 27.6348 70.8669 27.74 71.5664 27.9504C72.2659 28.1608 72.9193 28.4567 73.5264 28.838L72.5761 31.2049C72.0482 30.863 71.507 30.6 70.9527 30.4159C70.3983 30.2319 69.877 30.1398 69.3886 30.1398C68.9926 30.1398 68.6825 30.2056 68.4581 30.3371C68.2337 30.4554 68.1215 30.6329 68.1215 30.8696C68.1215 31.0142 68.1875 31.1326 68.3195 31.2246C68.4515 31.3035 68.7023 31.389 69.0718 31.4811L70.7547 31.8558C71.8238 32.1056 72.5893 32.4738 73.0513 32.9604C73.5264 33.4337 73.764 34.0846 73.764 34.9131C73.764 35.8993 73.368 36.6751 72.5761 37.2405C71.7974 37.8059 70.7151 38.0886 69.3292 38.0886Z" fill="#1EB76E"/>
<path d="M85.8179 27.911V37.9308H82.3136V36.5896C81.6668 37.589 80.7099 38.0886 79.4428 38.0886C78.1626 38.0886 77.2056 37.7336 76.5721 37.0235C75.9518 36.3135 75.6416 35.2286 75.6416 33.7691V27.911H79.2251V33.8677C79.2251 34.8539 79.654 35.347 80.5119 35.347C81.0135 35.347 81.4161 35.1695 81.7196 34.8144C82.0364 34.4594 82.1948 33.986 82.1948 33.3943V27.911H85.8179Z" fill="#1EB76E"/>
<path d="M94.9872 27.6348C95.8583 27.6348 96.6305 27.8518 97.3036 28.2857C97.9768 28.7065 98.4981 29.3114 98.8677 30.1004C99.2504 30.8893 99.4418 31.7966 99.4418 32.8223C99.4418 33.8611 99.2504 34.7816 98.8677 35.5837C98.4849 36.3726 97.957 36.9907 97.2838 37.4377C96.6107 37.8717 95.8451 38.0886 94.9872 38.0886C94.3141 38.0886 93.7003 37.9571 93.146 37.6942C92.5916 37.418 92.1759 37.0433 91.8987 36.5699V37.9308H88.3548V23.4139H91.9383V29.1142C92.2287 28.6671 92.6444 28.312 93.1856 28.0491C93.7267 27.7729 94.3273 27.6348 94.9872 27.6348ZM93.8983 35.4259C94.5319 35.4259 95.0136 35.2023 95.3436 34.7553C95.6868 34.3082 95.8583 33.6639 95.8583 32.8223C95.8583 32.0202 95.6934 31.4087 95.3634 30.9879C95.0334 30.554 94.5451 30.3371 93.8983 30.3371C93.2516 30.3371 92.7566 30.554 92.4135 30.9879C92.0703 31.4219 91.8987 32.0465 91.8987 32.8617C91.8987 33.7033 92.0703 34.3411 92.4135 34.775C92.7566 35.2089 93.2516 35.4259 93.8983 35.4259Z" fill="#1EB76E"/>
<path d="M100.889 14.0545L100.889 14.0546L100.889 14.0546C100.435 14.3445 99.9152 14.6757 99.2031 14.9018V11.9071C99.2901 11.8536 99.3786 11.7972 99.4707 11.7385L99.4707 11.7385C100.252 11.2405 101.224 10.6207 103.036 10.6207C104.847 10.6207 105.819 11.2405 106.6 11.7386C107.24 12.1466 107.703 12.4414 108.746 12.4414C109.79 12.4414 110.253 12.1464 110.892 11.7386C111.673 11.2405 112.646 10.6207 114.457 10.6207C116.269 10.6207 117.241 11.2405 118.022 11.7386C118.662 12.1466 119.124 12.4414 120.168 12.4414C121.212 12.4414 121.674 12.1466 122.314 11.7386C123.095 11.2405 124.068 10.6207 125.879 10.6207C127.691 10.6207 128.663 11.2406 129.444 11.7386C130.084 12.1466 130.547 12.4414 131.591 12.4414C132.635 12.4414 133.097 12.1466 133.737 11.7386C134.518 11.2403 135.49 10.6207 137.302 10.6207C139.113 10.6207 140.086 11.2405 140.867 11.7385C141.507 12.1465 141.97 12.4414 143.013 12.4414C144.057 12.4414 144.519 12.1465 145.159 11.7386C145.94 11.2406 146.913 10.6207 148.724 10.6207C150.536 10.6207 151.508 11.2405 152.289 11.7385C152.929 12.1465 153.391 12.4414 154.435 12.4414C155.479 12.4414 155.941 12.1466 156.581 11.7387C156.977 11.4864 157.422 11.2026 158 10.9841V14.0545C157.219 14.5525 156.247 15.1724 154.435 15.1724C152.624 15.1724 151.652 14.5526 150.87 14.0546C150.231 13.6465 149.768 13.3517 148.724 13.3517C147.681 13.3517 147.218 13.6465 146.578 14.0544C145.797 14.5525 144.825 15.1724 143.013 15.1724C141.202 15.1724 140.23 14.5525 139.448 14.0545C138.809 13.6465 138.346 13.3517 137.302 13.3517C136.258 13.3517 135.795 13.6466 135.155 14.0547C134.374 14.5527 133.402 15.1724 131.591 15.1724C129.779 15.1724 128.807 14.5525 128.026 14.0545C127.386 13.6465 126.923 13.3517 125.879 13.3517C124.835 13.3517 124.373 13.6465 123.733 14.0545C122.952 14.5525 121.98 15.1724 120.168 15.1724C118.357 15.1724 117.384 14.5525 116.603 14.0545C115.963 13.6465 115.501 13.3517 114.457 13.3517C113.413 13.3517 112.951 13.6467 112.311 14.0545L112.311 14.0545C111.53 14.5525 110.558 15.1724 108.746 15.1724C106.935 15.1724 105.963 14.5525 105.182 14.0545C104.542 13.6465 104.079 13.3517 103.036 13.3517C101.992 13.3517 101.529 13.6467 100.889 14.0545Z" fill="black"/>
<path d="M70.915 14.0545C70.2751 13.6465 69.8128 13.3517 68.7689 13.3517C67.7905 13.3517 67.3228 13.6109 66.741 13.9794L66.623 14.0545C66.1705 14.343 65.6539 14.6725 64.947 14.8985V11.9008C65.0307 11.8492 65.1157 11.795 65.2042 11.7386L65.2042 11.7386C65.9852 11.2405 66.9574 10.6207 68.7689 10.6207C70.5805 10.6207 71.5527 11.2405 72.3338 11.7386L72.3338 11.7386C72.9737 12.1466 73.436 12.4414 74.4798 12.4414C75.5237 12.4414 75.9861 12.1466 76.626 11.7386C77.4071 11.2405 78.3793 10.6207 80.191 10.6207C82.0027 10.6207 82.9749 11.2406 83.7561 11.7386C84.3961 12.1466 84.8584 12.4414 85.9024 12.4414C86.9464 12.4414 87.4088 12.1466 88.0487 11.7386C88.8299 11.2403 89.8021 10.6207 91.6138 10.6207C93.4253 10.6207 94.3975 11.2405 95.1786 11.7386L95.1786 11.7386C95.8185 12.1466 96.2808 12.4414 97.3246 12.4414C98.2245 12.4414 98.6924 12.2221 99.2143 11.9002V14.8982C98.7009 15.0626 98.0871 15.1724 97.3246 15.1724C95.5129 15.1724 94.5408 14.5525 93.7597 14.0545C93.1199 13.6465 92.6576 13.3517 91.6138 13.3517C90.5698 13.3517 90.1072 13.6466 89.4673 14.0547C88.6861 14.5527 87.714 15.1724 85.9024 15.1724C84.0907 15.1724 83.1185 14.5525 82.3373 14.0545C81.6974 13.6465 81.235 13.3517 80.191 13.3517C79.1472 13.3517 78.6848 13.6465 78.0449 14.0545C77.2638 14.5525 76.2916 15.1724 74.4799 15.1724C72.6684 15.1724 71.6961 14.5525 70.915 14.0545Z" fill="#1EB76E"/>
<path d="M40.2143 12.4414C41.2583 12.4414 41.7207 12.1466 42.3606 11.7386C43.1419 11.2403 44.114 10.6207 45.9257 10.6207C47.7372 10.6207 48.7094 11.2405 49.4905 11.7386C50.1304 12.1466 50.5927 12.4414 51.6365 12.4414C52.6802 12.4414 53.1428 12.1464 53.7826 11.7385C54.5637 11.2405 55.5358 10.6207 57.3474 10.6207C59.1589 10.6207 60.1311 11.2405 60.9123 11.7386L60.9123 11.7386C61.5521 12.1466 62.0145 12.4414 63.0583 12.4414C63.9577 12.4414 64.4256 12.2223 64.9471 11.9008V14.8985C64.4339 15.0627 63.8204 15.1724 63.0583 15.1724C61.2468 15.1724 60.2745 14.5525 59.4934 14.0545C58.8536 13.6465 58.3912 13.3517 57.3474 13.3517C56.3037 13.3517 55.841 13.6467 55.2013 14.0546C54.4201 14.5526 53.448 15.1724 51.6365 15.1724C49.8248 15.1724 48.8527 14.5525 48.0716 14.0545C47.4318 13.6465 46.9695 13.3517 45.9257 13.3517C44.8818 13.3517 44.4191 13.6466 43.7792 14.0546C42.998 14.5527 42.0259 15.1724 40.2143 15.1724C38.4026 15.1724 37.4304 14.5525 36.6492 14.0545C36.0093 13.6465 35.5469 13.3517 34.503 13.3517C33.4591 13.3517 32.9967 13.6465 32.3568 14.0545C31.5757 14.5525 30.6035 15.1724 28.7918 15.1724C26.9803 15.1724 26.0081 14.5525 25.2269 14.0545C24.587 13.6465 24.1247 13.3517 23.0808 13.3517C22.0372 13.3517 21.5746 13.6467 20.9349 14.0545C20.1538 14.5525 19.1817 15.1724 17.3702 15.1724C15.5586 15.1724 14.5864 14.5525 13.8052 14.0545C13.1654 13.6465 12.703 13.3517 11.6592 13.3517C10.6155 13.3517 10.1529 13.6467 9.51312 14.0546C8.73198 14.5526 7.75986 15.1724 5.9483 15.1724C4.13666 15.1724 3.16454 14.5525 2.38346 14.0545C1.74365 13.6465 1.28133 13.3517 0.237549 13.3517V10.6207C2.04902 10.6207 3.02124 11.2405 3.80239 11.7386C4.4422 12.1466 4.90452 12.4414 5.9483 12.4414C6.99202 12.4414 7.45466 12.1464 8.09441 11.7385C8.87555 11.2405 9.84767 10.6207 11.6592 10.6207C13.4708 10.6207 14.443 11.2405 15.2242 11.7386C15.864 12.1466 16.3263 12.4414 17.3702 12.4414C18.4138 12.4414 18.8764 12.1464 19.5161 11.7386C20.2971 11.2405 21.2693 10.6207 23.0808 10.6207C24.8924 10.6207 25.8646 11.2405 26.6458 11.7386C27.2856 12.1466 27.7479 12.4414 28.7918 12.4414C29.8356 12.4414 30.298 12.1466 30.9379 11.7386C31.719 11.2405 32.6912 10.6207 34.5029 10.6207C36.3146 10.6207 37.2869 11.2406 38.068 11.7386C38.708 12.1466 39.1703 12.4414 40.2143 12.4414Z" fill="black"/>
</svg>
