<svg xmlns="http://www.w3.org/2000/svg" xml:space="preserve" viewBox="0 0 1489 292">
  <path d="M223.9 108.4c-2.1-3.2-5.4-5.4-9.3-6.2-3.9-.8-7.5-.2-10.5 1.7s-5.3 5-6.6 9l-16.9 50.9v.1c-.6 1.6-1.6 3-3 3.9-1.4 1-3.1 1.5-4.8 1.5-4.5 0-8.2-3.6-8.2-8V32c0-7.8-6.8-14.4-14.9-14.4-8.1 0-14.7 6.5-14.7 14.4v108.2a7.87 7.87 0 0 1-8 7.9 7.87 7.87 0 0 1-8-7.9V14.4c0-3.8-1.5-7.5-4.2-10.2C112 1.5 108.3 0 104.4 0c-3.9 0-7.5 1.5-10.2 4.2-2.7 2.7-4.3 6.4-4.2 10.2v125.8a7.87 7.87 0 0 1-8 7.9 7.87 7.87 0 0 1-8-7.9V44c0-3.9-1.5-7.5-4.2-10.2a14.46 14.46 0 0 0-20.4 0C46.5 36.4 45 40.1 45 44v108.2a7.87 7.87 0 0 1-8 7.9 7.87 7.87 0 0 1-7.9-7.9V85.8c0-3.9-1.5-7.5-4.2-10.2a14.46 14.46 0 0 0-20.4 0C1.5 78.3 0 81.9 0 85.8v103.1C0 245.7 46.6 292 103.8 292c25.2 0 48.3-8.3 66.7-24.1 18.3-15.7 30.6-37.4 35.7-62.9l19.6-85.9c.8-3.8.1-7.6-1.9-10.7zM35 225.5c-1.9-2.3-3.7-4.7-5.5-7.2l-.6-.8.6-.8c.3-.4.6-.9 1.1-1.6A171.85 171.85 0 0 1 51 192.5c12.4-11.3 31.6-24.8 53-24.8s40.7 13.5 53 24.8c7 6.4 12.6 12.8 16 17 1.5 1.8 3 3.7 4.4 5.6.5.7.9 1.2 1.1 1.6l.6.8-.6.8c-.3.4-.6.9-1.1 1.6-.9 1.2-2.4 3.2-4.4 5.6-3.5 4.2-9 10.6-16 17-12.4 11.3-31.6 24.8-53 24.8s-40.7-13.5-53-24.8c-7-6.3-12.6-12.7-16-17z"/>
  <path fill="currentColor" fill-rule="evenodd" d="M103.2 252.1c18.8 0 34-15.3 34-34.3 0-18.9-15.2-34.3-34-34.3-7.6 0-15 2.6-21 7.3a13.5 13.5 0 1 1 2.8 26.7c-7.4 0-12.9-5.4-13.4-12.4-1.6 4-2.4 8.3-2.4 12.7 0 18.9 15.3 34.3 34 34.3z" clip-rule="evenodd"/>
  <path d="M459.8 104.8v141h33.8v-141h-33.8zm51.7 118.5-.2-2.2 15.7-18.8h2.3c4.6 5 10.2 9.1 17 12.4 6.8 3.3 13.7 5 20.7 5 6.1 0 11.1-1.3 14.9-3.8 3.8-2.5 5.7-5.9 5.7-10.1 0-1.2-.1-2.2-.4-3.2-.3-1-.9-1.9-1.6-2.8-.7-.8-1.4-1.6-2-2.2-.6-.6-1.6-1.4-3-2.1s-2.4-1.4-3.3-1.8c-.8-.4-2.2-1.1-4.1-1.8-1.4-.6-2.9-1.1-4.3-1.6-1-.3-2.7-.8-5-1.6-2.3-.7-4-1.3-5-1.6-3.3-1.2-6-2.2-8.4-3.1-2.3-.8-5.1-2-8.3-3.5-3.2-1.5-5.8-3-8.1-4.5-2.2-1.5-4.6-3.4-7-5.6-2.4-2.2-4.3-4.6-5.8-7-1.5-2.4-2.7-5.3-3.6-8.6a36 36 0 0 1-1.4-10.5c0-8.8 2.4-16.4 7.2-22.9 4.8-6.5 11.1-11.2 19-14.4 7.8-3.2 16.7-4.8 26.6-4.8 10.5 0 20.1 1.8 28.8 5.5s15.8 8.9 21.3 15.6v3.3l-15.6 17.5h-2.9a48.6 48.6 0 0 0-13.5-10.4c-5.3-2.8-11.1-4.1-17.6-4.1-5.4 0-9.8 1.1-13.2 3.3-3.4 2.2-5.1 5.3-5.1 9.2 0 1.7.4 3.3 1.3 4.8.8 1.5 1.8 2.8 3 3.7 1.2 1 2.8 2 4.9 3.2 2.1 1.2 3.9 2 5.5 2.6 1.6.6 3.8 1.5 6.7 2.5.4.1 1.1.3 1.8.6 6.3 2.2 10.9 3.9 14 5.1 3.1 1.2 7.2 3.2 12.4 5.9 5.2 2.8 9.1 5.5 11.7 8.4 2.5 2.9 4.9 6.6 7 11.2 2.1 4.7 3.2 9.7 3.2 15.4 0 9.2-2.4 17.1-7.3 23.6-4.9 6.6-11.3 11.4-19.4 14.5-8.1 3.1-17.3 4.7-27.5 4.7-11.5 0-22.2-2.1-32-6.3a62.97 62.97 0 0 1-24.4-18.1l-.7-.6zm198.9 25.1c10.9 0 21.1-1.9 30.6-5.6 9.5-3.7 17.7-8.8 24.5-15.3 6.8-6.5 12.2-14.2 16.1-23.3a73 73 0 0 0 5.9-29c0-13.8-3.4-26.3-10.1-37.4a71.99 71.99 0 0 0-27.6-26.3c-11.8-6.4-24.9-9.5-39.4-9.5s-27.7 3.2-39.4 9.5c-11.8 6.4-21 15-27.7 26.2-6.7 11.1-10.1 23.6-10.1 37.4 0 13.8 3.4 26.3 10.1 37.4a71.57 71.57 0 0 0 27.7 26.3c11.7 6.4 24.9 9.6 39.4 9.6zm0-30.7c-12 0-22.1-4-30.4-12.1-8.3-8.1-12.4-18.2-12.4-30.4s4.1-22.6 12.4-30.5c8.3-7.9 18.4-12 30.5-12s22.2 4 30.4 12 12.3 18.1 12.3 30.5-4.1 22.4-12.4 30.4c-8.3 8.1-18.3 12.1-30.3 12.1h-.1zM446.9 106.9l-1.6-2.1h-33.6l-39 94.2c-.2.2-.4.3-.6.4-.1-.1-.3-.2-.6-.4l-39-94.2h-33.6l-1.6 2.1 59.9 136.2c.4.9.8 1.7 1.1 2.6h27.6c.4-.9.8-1.8 1.1-2.6l59.9-136.2zm465.7 25.3v113.6h-34V132.2h-43.9v-27.8h122v27.8h-44.1zm176.5 85.5-2.2-1.1c-2.3 1-4.2 1.5-5.6 1.5-1.8 0-3.4-.4-4.9-1.3-1.5-.8-2.9-2.2-4.2-4.1-1.4-1.9-2.4-3.6-3.2-5.1-.8-1.5-1.8-3.7-3.2-6.6-3.6-6.5-6.4-10.5-8.3-12.1 9.1-3.1 16.4-8.1 21.6-14.9 5.2-6.8 7.9-15.1 7.9-24.8 0-14.1-4.7-25.2-14.1-33.1-9.4-8-23.1-12-40.8-12h-61.5v141.4h33.9v-53.1h11c3.5 0 7.2 2.7 11.2 7.9 2.2 3.1 5.6 9 10.2 17.8 2.7 5.1 5 9.2 7 12.3 2 3.1 4.6 6.2 7.5 9.1 2.9 2.9 6.4 5.1 10.2 6.5 3.8 1.4 8.3 2 13.3 2 8.1 0 14.4-1.8 19.1-5.3l1.1-2.3-6-22.7zm-84.9-48.6v-37.2h27.8c5.9 0 10.8 1.7 14.6 5.1 3.7 3.4 5.6 8 5.6 13.7s-1.8 10.1-5.5 13.4-8.5 4.9-14.4 4.9l-28.1.1zm104.4-64.7v80c0 20 5.7 35.6 17.2 47 11.5 11.4 27.1 17 46.9 17 19.8 0 35.2-5.6 46.4-17 11.3-11.4 16.9-27.1 16.9-47.2v-80h-33.3v81.6c0 10-2.7 17.8-8.1 23.5-5.4 5.6-12.8 8.5-22 8.5s-16.6-2.9-21.9-8.5c-5.3-5.6-8-13.5-8-23.6v-81.6l-34.1.3zm143.8 119.1-.4-2.5 15.7-18.8h2.3c4.6 5 10.2 9.1 17 12.4 6.8 3.3 13.7 5 20.7 5 6.2 0 11.2-1.3 15-3.8 3.8-2.6 5.7-5.9 5.7-10.1 0-1.2-.1-2.2-.4-3.2-.3-1-.9-2-1.6-2.8-.8-.8-1.4-1.6-2-2.2s-1.6-1.4-3-2.1c-1.4-.7-2.4-1.4-3.3-1.8-.8-.4-2.2-1.1-4.1-1.8-1.9-.7-3.4-1.3-4.4-1.6s-2.7-.8-5-1.6c-2.3-.7-4-1.3-5-1.6-3.3-1.2-6.1-2.2-8.4-3.1-2.3-.8-5.1-2-8.3-3.5-3.2-1.5-5.8-3-8.1-4.5-2.2-1.5-4.6-3.4-7-5.6a30.8 30.8 0 0 1-5.8-7c-1.5-2.4-2.7-5.3-3.6-8.6-.9-3.3-1.4-6.8-1.4-10.5 0-8.8 2.4-16.5 7.2-22.9 4.8-6.5 11.2-11.3 19-14.4s16.8-4.8 26.7-4.8c10.5 0 20.2 1.8 28.9 5.5s15.8 8.9 21.4 15.6v3.3l-15.6 17.5h-2.9a46.8 46.8 0 0 0-13.5-10.4c-5.3-2.8-11.2-4.1-17.6-4.1-5.4 0-9.9 1.1-13.3 3.3-3.4 2.2-5.1 5.3-5.1 9.2 0 1.7.4 3.3 1.3 4.8.8 1.5 1.8 2.8 3 3.7 1.2 1 2.8 2 4.9 3.2 2.1 1.2 3.9 2 5.5 2.7 1.6.6 3.8 1.5 6.7 2.6.4.1 1.1.3 1.8.6 6.3 2.2 10.9 3.9 14 5.1 3.1 1.2 7.2 3.2 12.4 5.9 5.2 2.8 9.1 5.5 11.7 8.4 2.6 2.9 4.9 6.6 7 11.3 2.1 4.7 3.2 9.8 3.2 15.4 0 9.2-2.4 17.1-7.3 23.7A43.03 43.03 0 0 1 1337 244c-8.1 3.1-17.3 4.7-27.6 4.7-11.6 0-22.3-2.1-32.1-6.3-9.8-4.1-18-10.2-24.4-18.2l-.5-.7zm192.5-91.3v113.6h-34V132.2H1367v-27.8h122v27.8h-44.1z"/>
</svg>
